G04 #@! TF.GenerationSoftware,KiCad,Pcbnew,(5.1.5-0-10_14)*
G04 #@! TF.CreationDate,2020-11-19T19:06:25+01:00*
G04 #@! TF.ProjectId,fuzzy-christmas-2020,66757a7a-792d-4636-9872-6973746d6173,rev?*
G04 #@! TF.SameCoordinates,Original*
G04 #@! TF.FileFunction,Copper,L2,Bot*
G04 #@! TF.FilePolarity,Positive*
%FSLAX46Y46*%
G04 Gerber Fmt 4.6, Leading zero omitted, Abs format (unit mm)*
G04 Created by KiCad (PCBNEW (5.1.5-0-10_14)) date 2020-11-19 19:06:25*
%MOMM*%
%LPD*%
G04 APERTURE LIST*
%ADD10O,2.000000X2.000000*%
%ADD11C,0.100000*%
%ADD12C,2.000000*%
%ADD13O,2.540000X2.540000*%
%ADD14R,2.540000X2.540000*%
%ADD15C,1.930400*%
%ADD16R,1.930400X1.930400*%
%ADD17O,1.930400X1.930400*%
%ADD18R,1.700000X1.700000*%
%ADD19C,0.250000*%
%ADD20C,0.254000*%
G04 APERTURE END LIST*
D10*
X209550000Y-67373500D03*
X217170000Y-67373500D03*
G04 #@! TA.AperFunction,ComponentPad*
D11*
G36*
X214941013Y-81571010D02*
G01*
X213408924Y-82856585D01*
X212123349Y-81324496D01*
X213655438Y-80038921D01*
X214941013Y-81571010D01*
G37*
G04 #@! TD.AperFunction*
D12*
X210266819Y-77556247D02*
X210266819Y-77556247D01*
D13*
X207010000Y-73660000D03*
X212090000Y-73660000D03*
D14*
X217170000Y-73660000D03*
X217170000Y-78232000D03*
D13*
X222250000Y-78232000D03*
X227330000Y-78232000D03*
X227330000Y-73660000D03*
X232410000Y-73660000D03*
D14*
X237490000Y-73660000D03*
D10*
X222250000Y-81470500D03*
X217170000Y-81470500D03*
G04 #@! TA.AperFunction,ComponentPad*
D11*
G36*
X238470212Y-77888807D02*
G01*
X240141988Y-78854007D01*
X239176788Y-80525783D01*
X237505012Y-79560583D01*
X238470212Y-77888807D01*
G37*
G04 #@! TD.AperFunction*
D15*
X237553500Y-81407000D02*
X237553500Y-81407000D01*
X236283500Y-83606705D02*
X236283500Y-83606705D01*
D16*
X219964000Y-70358000D03*
D17*
X222504000Y-70358000D03*
X225044000Y-70358000D03*
D10*
X209550000Y-64198500D03*
X217170000Y-64198500D03*
X236220000Y-70358000D03*
X228600000Y-70358000D03*
X233934000Y-66802000D03*
X226314000Y-66802000D03*
D18*
X223456500Y-65659000D03*
X220281500Y-84543900D03*
X217741500Y-84543900D03*
X220916500Y-65659000D03*
D10*
X231584500Y-84455000D03*
X226504500Y-84455000D03*
D19*
X233351398Y-70358000D02*
X234805787Y-70358000D01*
X228454397Y-75255001D02*
X233351398Y-70358000D01*
X234805787Y-70358000D02*
X236220000Y-70358000D01*
X225226999Y-75255001D02*
X228454397Y-75255001D01*
X222250000Y-78232000D02*
X225226999Y-75255001D01*
X215374999Y-77956999D02*
X215650000Y-78232000D01*
X215650000Y-78232000D02*
X217170000Y-78232000D01*
X217170000Y-68787713D02*
X215374999Y-70582714D01*
X215374999Y-70582714D02*
X215374999Y-77956999D01*
X217170000Y-67373500D02*
X217170000Y-68787713D01*
X222504000Y-70358000D02*
X219964000Y-72898000D01*
X234441796Y-83129999D02*
X234918502Y-83606705D01*
X221948497Y-83129999D02*
X234441796Y-83129999D01*
X234918502Y-83606705D02*
X236283500Y-83606705D01*
X219964000Y-81145502D02*
X221948497Y-83129999D01*
X219964000Y-72898000D02*
X219964000Y-81145502D01*
X221304801Y-67801999D02*
X225314001Y-67801999D01*
X225314001Y-67801999D02*
X226314000Y-66802000D01*
X219964000Y-69142800D02*
X221304801Y-67801999D01*
X219964000Y-70358000D02*
X219964000Y-69142800D01*
D20*
G36*
X220454191Y-62354914D02*
G01*
X220454755Y-62360195D01*
X220473275Y-62419492D01*
X220481336Y-62446771D01*
X220483326Y-62451675D01*
X220494981Y-62488992D01*
X220508636Y-62514041D01*
X220519362Y-62540472D01*
X220540851Y-62573139D01*
X220559564Y-62607467D01*
X220577838Y-62629366D01*
X220593518Y-62653201D01*
X220620971Y-62681052D01*
X220646017Y-62711065D01*
X220668209Y-62728975D01*
X220688241Y-62749297D01*
X220720602Y-62771258D01*
X220751021Y-62795807D01*
X220776287Y-62809046D01*
X220799893Y-62825066D01*
X220835911Y-62840290D01*
X220870539Y-62858435D01*
X220897897Y-62866489D01*
X220924179Y-62877598D01*
X220962478Y-62885502D01*
X220999979Y-62896543D01*
X221028390Y-62899106D01*
X221056328Y-62904872D01*
X221066522Y-62904945D01*
X221186939Y-63117991D01*
X221201254Y-63138360D01*
X221219269Y-63155544D01*
X221240290Y-63168884D01*
X221263509Y-63177867D01*
X221291572Y-63182362D01*
X227855756Y-63489100D01*
X227876965Y-64070068D01*
X227741038Y-65077622D01*
X227732069Y-65122381D01*
X227731990Y-65178037D01*
X227729992Y-65233636D01*
X227731895Y-65245395D01*
X227731878Y-65257313D01*
X227742659Y-65311913D01*
X227751546Y-65366837D01*
X227755707Y-65378001D01*
X227758015Y-65389690D01*
X227779237Y-65441129D01*
X227798672Y-65493273D01*
X227804932Y-65503411D01*
X227809475Y-65514424D01*
X227840332Y-65560747D01*
X227869560Y-65608085D01*
X227877673Y-65616803D01*
X227884281Y-65626723D01*
X227923585Y-65666138D01*
X227961483Y-65706863D01*
X227971143Y-65713832D01*
X227979558Y-65722271D01*
X228025787Y-65753254D01*
X228070911Y-65785809D01*
X228081749Y-65790762D01*
X228091645Y-65797394D01*
X228143016Y-65818758D01*
X228193638Y-65841890D01*
X228205235Y-65844633D01*
X228216233Y-65849207D01*
X228270787Y-65860139D01*
X228324947Y-65872950D01*
X228336854Y-65873378D01*
X228348537Y-65875719D01*
X228404189Y-65875798D01*
X228459792Y-65877796D01*
X228471551Y-65875893D01*
X228483469Y-65875910D01*
X228538066Y-65865130D01*
X228592993Y-65856242D01*
X228635766Y-65840299D01*
X229657299Y-65532000D01*
X232640564Y-65532000D01*
X232858929Y-65564832D01*
X232664013Y-65759748D01*
X232485082Y-66027537D01*
X232361832Y-66325088D01*
X232299000Y-66640967D01*
X232299000Y-66963033D01*
X232361832Y-67278912D01*
X232485082Y-67576463D01*
X232664013Y-67844252D01*
X232891748Y-68071987D01*
X233159537Y-68250918D01*
X233457088Y-68374168D01*
X233772967Y-68437000D01*
X234095033Y-68437000D01*
X234410912Y-68374168D01*
X234708463Y-68250918D01*
X234976252Y-68071987D01*
X235203987Y-67844252D01*
X235382918Y-67576463D01*
X235506168Y-67278912D01*
X235569000Y-66963033D01*
X235569000Y-66640967D01*
X235551764Y-66554313D01*
X236159914Y-66864387D01*
X236362517Y-67037573D01*
X238060649Y-68596513D01*
X238593142Y-69213752D01*
X239381031Y-70408612D01*
X239673982Y-71090146D01*
X239965373Y-71930037D01*
X240122849Y-72960661D01*
X239629237Y-74653044D01*
X239563624Y-74776046D01*
X239392388Y-74987710D01*
X239398072Y-74930000D01*
X239395000Y-73945750D01*
X239236250Y-73787000D01*
X237617000Y-73787000D01*
X237617000Y-75406250D01*
X237775750Y-75565000D01*
X238760000Y-75568072D01*
X238884482Y-75555812D01*
X238964544Y-75531525D01*
X238961727Y-75535806D01*
X238953210Y-75556783D01*
X238942032Y-75576471D01*
X238927884Y-75619160D01*
X238910967Y-75660827D01*
X238906705Y-75683065D01*
X238899584Y-75704553D01*
X238894037Y-75749175D01*
X238885571Y-75793350D01*
X238885730Y-75815989D01*
X238882937Y-75838455D01*
X238886203Y-75883315D01*
X238886519Y-75928278D01*
X238891091Y-75950449D01*
X238892735Y-75973032D01*
X238904687Y-76016382D01*
X238913770Y-76060430D01*
X238922582Y-76081289D01*
X238928599Y-76103112D01*
X238948780Y-76143301D01*
X238966281Y-76184727D01*
X238997888Y-76231320D01*
X239175471Y-76512350D01*
X239143175Y-76684595D01*
X239141008Y-76709397D01*
X239143720Y-76734145D01*
X239151209Y-76757889D01*
X239168320Y-76786695D01*
X240072713Y-77932259D01*
X240218387Y-78162793D01*
X239871067Y-77964356D01*
X239654210Y-78022463D01*
X238996985Y-79160810D01*
X240135332Y-79818035D01*
X240352189Y-79759928D01*
X240694574Y-79173043D01*
X240716197Y-79125320D01*
X240961481Y-79720752D01*
X240741923Y-81301575D01*
X240159398Y-82310538D01*
X238206890Y-85532176D01*
X238201908Y-85541204D01*
X237901575Y-86141869D01*
X237791719Y-86199005D01*
X237675496Y-86185241D01*
X237636800Y-86177416D01*
X237575018Y-86177220D01*
X237513198Y-86176002D01*
X237507573Y-86177006D01*
X237501868Y-86176988D01*
X237441220Y-86188851D01*
X237380365Y-86199714D01*
X237375051Y-86201793D01*
X237369445Y-86202890D01*
X237312257Y-86226366D01*
X237254709Y-86248885D01*
X237249900Y-86251963D01*
X237244619Y-86254131D01*
X237193098Y-86288320D01*
X237141062Y-86321626D01*
X237136950Y-86325579D01*
X237132188Y-86328739D01*
X237088303Y-86372346D01*
X237043789Y-86415139D01*
X237021220Y-86447517D01*
X236997608Y-86476102D01*
X234517146Y-86442763D01*
X234489154Y-86419444D01*
X234442024Y-86378911D01*
X234437290Y-86376239D01*
X234433124Y-86372768D01*
X234378638Y-86343128D01*
X234324521Y-86312578D01*
X234319360Y-86310881D01*
X234314594Y-86308289D01*
X234255367Y-86289847D01*
X234196336Y-86270443D01*
X234190941Y-86269786D01*
X234185762Y-86268173D01*
X234124057Y-86261637D01*
X234062392Y-86254125D01*
X234023298Y-86257067D01*
X231431916Y-86238038D01*
X231392433Y-86234534D01*
X231331132Y-86241169D01*
X231269752Y-86246760D01*
X231264125Y-86248422D01*
X231258284Y-86249054D01*
X231199435Y-86267527D01*
X231140345Y-86284979D01*
X231135149Y-86287708D01*
X231129544Y-86289467D01*
X231075446Y-86319058D01*
X231020880Y-86347711D01*
X231016314Y-86351402D01*
X231011163Y-86354220D01*
X230963829Y-86393835D01*
X230962408Y-86394984D01*
X228360722Y-86360015D01*
X228350703Y-86342404D01*
X228321806Y-86309026D01*
X228295252Y-86273767D01*
X228277747Y-86258134D01*
X228262386Y-86240391D01*
X228227539Y-86213296D01*
X228194610Y-86183889D01*
X228174391Y-86171972D01*
X228155864Y-86157566D01*
X228116395Y-86137788D01*
X228078367Y-86115373D01*
X228056213Y-86107630D01*
X228035229Y-86097114D01*
X227992661Y-86085416D01*
X227950991Y-86070851D01*
X227927750Y-86067578D01*
X227905120Y-86061359D01*
X227861089Y-86058190D01*
X227817376Y-86052034D01*
X227760351Y-86055257D01*
X226699754Y-86083193D01*
X226981412Y-86027168D01*
X227278963Y-85903918D01*
X227546752Y-85724987D01*
X227774487Y-85497252D01*
X227953418Y-85229463D01*
X228076668Y-84931912D01*
X228139500Y-84616033D01*
X228139500Y-84293967D01*
X228076668Y-83978088D01*
X228040180Y-83889999D01*
X230048820Y-83889999D01*
X230012332Y-83978088D01*
X229949500Y-84293967D01*
X229949500Y-84616033D01*
X230012332Y-84931912D01*
X230135582Y-85229463D01*
X230314513Y-85497252D01*
X230542248Y-85724987D01*
X230810037Y-85903918D01*
X231107588Y-86027168D01*
X231423467Y-86090000D01*
X231745533Y-86090000D01*
X232061412Y-86027168D01*
X232358963Y-85903918D01*
X232626752Y-85724987D01*
X232854487Y-85497252D01*
X233033418Y-85229463D01*
X233156668Y-84931912D01*
X233219500Y-84616033D01*
X233219500Y-84293967D01*
X233156668Y-83978088D01*
X233120180Y-83889999D01*
X234126995Y-83889999D01*
X234354698Y-84117702D01*
X234378501Y-84146706D01*
X234451648Y-84206736D01*
X234494225Y-84241679D01*
X234626255Y-84312251D01*
X234769516Y-84355708D01*
X234865757Y-84365187D01*
X235040543Y-84626773D01*
X235263432Y-84849662D01*
X235525521Y-85024784D01*
X235816739Y-85145411D01*
X236125894Y-85206905D01*
X236441106Y-85206905D01*
X236750261Y-85145411D01*
X237041479Y-85024784D01*
X237303568Y-84849662D01*
X237526457Y-84626773D01*
X237701579Y-84364684D01*
X237822206Y-84073466D01*
X237883700Y-83764311D01*
X237883700Y-83449099D01*
X237822206Y-83139944D01*
X237762950Y-82996888D01*
X238020261Y-82945706D01*
X238311479Y-82825079D01*
X238573568Y-82649957D01*
X238796457Y-82427068D01*
X238971579Y-82164979D01*
X239092206Y-81873761D01*
X239153700Y-81564606D01*
X239153700Y-81249394D01*
X239135875Y-81159783D01*
X239218520Y-81162488D01*
X239341933Y-81142113D01*
X239458999Y-81098052D01*
X239565221Y-81032000D01*
X239656516Y-80946493D01*
X239729374Y-80844819D01*
X240066439Y-80254862D01*
X240008332Y-80038005D01*
X238869985Y-79380780D01*
X238859985Y-79398101D01*
X238640015Y-79271101D01*
X238650015Y-79253780D01*
X237511668Y-78596555D01*
X237294811Y-78654662D01*
X236952426Y-79241547D01*
X236900802Y-79355481D01*
X236872399Y-79477298D01*
X236868307Y-79602315D01*
X236888682Y-79725728D01*
X236932743Y-79842794D01*
X236976893Y-79913794D01*
X236795521Y-79988921D01*
X236533432Y-80164043D01*
X236310543Y-80386932D01*
X236135421Y-80649021D01*
X236014794Y-80940239D01*
X235953300Y-81249394D01*
X235953300Y-81564606D01*
X236014794Y-81873761D01*
X236074050Y-82016817D01*
X235816739Y-82067999D01*
X235525521Y-82188626D01*
X235263432Y-82363748D01*
X235040543Y-82586637D01*
X235013583Y-82626985D01*
X235005600Y-82619002D01*
X234981797Y-82589998D01*
X234866072Y-82495025D01*
X234734043Y-82424453D01*
X234590782Y-82380996D01*
X234479129Y-82369999D01*
X234479118Y-82369999D01*
X234441796Y-82366323D01*
X234404474Y-82369999D01*
X223615372Y-82369999D01*
X223698918Y-82244963D01*
X223822168Y-81947412D01*
X223885000Y-81631533D01*
X223885000Y-81309467D01*
X223822168Y-80993588D01*
X223698918Y-80696037D01*
X223519987Y-80428248D01*
X223292252Y-80200513D01*
X223024463Y-80021582D01*
X222966017Y-79997373D01*
X223152356Y-79920189D01*
X223464366Y-79711710D01*
X223729710Y-79446366D01*
X223938189Y-79134356D01*
X224081791Y-78787668D01*
X224155000Y-78419626D01*
X224155000Y-78044374D01*
X225425000Y-78044374D01*
X225425000Y-78419626D01*
X225498209Y-78787668D01*
X225641811Y-79134356D01*
X225850290Y-79446366D01*
X226115634Y-79711710D01*
X226427644Y-79920189D01*
X226774332Y-80063791D01*
X227142374Y-80137000D01*
X227517626Y-80137000D01*
X227885668Y-80063791D01*
X228232356Y-79920189D01*
X228544366Y-79711710D01*
X228809710Y-79446366D01*
X229018189Y-79134356D01*
X229161791Y-78787668D01*
X229235000Y-78419626D01*
X229235000Y-78159728D01*
X237580561Y-78159728D01*
X237638668Y-78376585D01*
X238777015Y-79033810D01*
X239434240Y-77895463D01*
X239376133Y-77678606D01*
X238789248Y-77336221D01*
X238675314Y-77284597D01*
X238553497Y-77256194D01*
X238428480Y-77252102D01*
X238305067Y-77272477D01*
X238188001Y-77316538D01*
X238081779Y-77382590D01*
X237990484Y-77468097D01*
X237917626Y-77569771D01*
X237580561Y-78159728D01*
X229235000Y-78159728D01*
X229235000Y-78044374D01*
X229161791Y-77676332D01*
X229018189Y-77329644D01*
X228809710Y-77017634D01*
X228544366Y-76752290D01*
X228232356Y-76543811D01*
X227885668Y-76400209D01*
X227517626Y-76327000D01*
X227142374Y-76327000D01*
X226774332Y-76400209D01*
X226427644Y-76543811D01*
X226115634Y-76752290D01*
X225850290Y-77017634D01*
X225641811Y-77329644D01*
X225498209Y-77676332D01*
X225425000Y-78044374D01*
X224155000Y-78044374D01*
X224081791Y-77676332D01*
X224022826Y-77533976D01*
X225541801Y-76015001D01*
X228417075Y-76015001D01*
X228454397Y-76018677D01*
X228491719Y-76015001D01*
X228491730Y-76015001D01*
X228603383Y-76004004D01*
X228746644Y-75960547D01*
X228878673Y-75889975D01*
X228994398Y-75795002D01*
X229018201Y-75765998D01*
X230576603Y-74207596D01*
X230578209Y-74215668D01*
X230721811Y-74562356D01*
X230930290Y-74874366D01*
X231195634Y-75139710D01*
X231507644Y-75348189D01*
X231854332Y-75491791D01*
X232222374Y-75565000D01*
X232597626Y-75565000D01*
X232965668Y-75491791D01*
X233312356Y-75348189D01*
X233624366Y-75139710D01*
X233834076Y-74930000D01*
X235581928Y-74930000D01*
X235594188Y-75054482D01*
X235630498Y-75174180D01*
X235689463Y-75284494D01*
X235768815Y-75381185D01*
X235865506Y-75460537D01*
X235975820Y-75519502D01*
X236095518Y-75555812D01*
X236220000Y-75568072D01*
X237204250Y-75565000D01*
X237363000Y-75406250D01*
X237363000Y-73787000D01*
X235743750Y-73787000D01*
X235585000Y-73945750D01*
X235581928Y-74930000D01*
X233834076Y-74930000D01*
X233889710Y-74874366D01*
X234098189Y-74562356D01*
X234241791Y-74215668D01*
X234315000Y-73847626D01*
X234315000Y-73472374D01*
X234241791Y-73104332D01*
X234098189Y-72757644D01*
X233889710Y-72445634D01*
X233624366Y-72180290D01*
X233312356Y-71971811D01*
X232965668Y-71828209D01*
X232957596Y-71826603D01*
X233666200Y-71118000D01*
X234765091Y-71118000D01*
X234771082Y-71132463D01*
X234950013Y-71400252D01*
X235177748Y-71627987D01*
X235445537Y-71806918D01*
X235743088Y-71930168D01*
X235772277Y-71935974D01*
X235768815Y-71938815D01*
X235689463Y-72035506D01*
X235630498Y-72145820D01*
X235594188Y-72265518D01*
X235581928Y-72390000D01*
X235585000Y-73374250D01*
X235743750Y-73533000D01*
X237363000Y-73533000D01*
X237363000Y-71913750D01*
X237617000Y-71913750D01*
X237617000Y-73533000D01*
X239236250Y-73533000D01*
X239395000Y-73374250D01*
X239398072Y-72390000D01*
X239385812Y-72265518D01*
X239349502Y-72145820D01*
X239290537Y-72035506D01*
X239211185Y-71938815D01*
X239114494Y-71859463D01*
X239004180Y-71800498D01*
X238884482Y-71764188D01*
X238760000Y-71751928D01*
X237775750Y-71755000D01*
X237617000Y-71913750D01*
X237363000Y-71913750D01*
X237204250Y-71755000D01*
X237072778Y-71754590D01*
X237262252Y-71627987D01*
X237489987Y-71400252D01*
X237668918Y-71132463D01*
X237792168Y-70834912D01*
X237855000Y-70519033D01*
X237855000Y-70196967D01*
X237792168Y-69881088D01*
X237668918Y-69583537D01*
X237489987Y-69315748D01*
X237262252Y-69088013D01*
X236994463Y-68909082D01*
X236696912Y-68785832D01*
X236381033Y-68723000D01*
X236058967Y-68723000D01*
X235743088Y-68785832D01*
X235445537Y-68909082D01*
X235177748Y-69088013D01*
X234950013Y-69315748D01*
X234771082Y-69583537D01*
X234765091Y-69598000D01*
X233388720Y-69598000D01*
X233351397Y-69594324D01*
X233314074Y-69598000D01*
X233314065Y-69598000D01*
X233202412Y-69608997D01*
X233059151Y-69652454D01*
X232927122Y-69723026D01*
X232811397Y-69817999D01*
X232787599Y-69846997D01*
X229222925Y-73411671D01*
X229161791Y-73104332D01*
X229018189Y-72757644D01*
X228809710Y-72445634D01*
X228544366Y-72180290D01*
X228232356Y-71971811D01*
X228139888Y-71933510D01*
X228438967Y-71993000D01*
X228761033Y-71993000D01*
X229076912Y-71930168D01*
X229374463Y-71806918D01*
X229642252Y-71627987D01*
X229869987Y-71400252D01*
X230048918Y-71132463D01*
X230172168Y-70834912D01*
X230235000Y-70519033D01*
X230235000Y-70196967D01*
X230172168Y-69881088D01*
X230048918Y-69583537D01*
X229869987Y-69315748D01*
X229642252Y-69088013D01*
X229374463Y-68909082D01*
X229076912Y-68785832D01*
X228761033Y-68723000D01*
X228438967Y-68723000D01*
X228123088Y-68785832D01*
X227825537Y-68909082D01*
X227557748Y-69088013D01*
X227330013Y-69315748D01*
X227151082Y-69583537D01*
X227027832Y-69881088D01*
X226965000Y-70196967D01*
X226965000Y-70519033D01*
X227027832Y-70834912D01*
X227151082Y-71132463D01*
X227330013Y-71400252D01*
X227557748Y-71627987D01*
X227825537Y-71806918D01*
X227868872Y-71824868D01*
X227517626Y-71755000D01*
X227142374Y-71755000D01*
X226774332Y-71828209D01*
X226427644Y-71971811D01*
X226115634Y-72180290D01*
X225850290Y-72445634D01*
X225641811Y-72757644D01*
X225498209Y-73104332D01*
X225425000Y-73472374D01*
X225425000Y-73847626D01*
X225498209Y-74215668D01*
X225613912Y-74495001D01*
X225264321Y-74495001D01*
X225226998Y-74491325D01*
X225189675Y-74495001D01*
X225189666Y-74495001D01*
X225078013Y-74505998D01*
X224934752Y-74549455D01*
X224802723Y-74620027D01*
X224686998Y-74715000D01*
X224663200Y-74743998D01*
X222948024Y-76459174D01*
X222805668Y-76400209D01*
X222437626Y-76327000D01*
X222062374Y-76327000D01*
X221694332Y-76400209D01*
X221347644Y-76543811D01*
X221035634Y-76752290D01*
X220770290Y-77017634D01*
X220724000Y-77086912D01*
X220724000Y-73212801D01*
X222039622Y-71897180D01*
X222346394Y-71958200D01*
X222661606Y-71958200D01*
X222970761Y-71896706D01*
X223261979Y-71776079D01*
X223524068Y-71600957D01*
X223746957Y-71378068D01*
X223774000Y-71337595D01*
X223801043Y-71378068D01*
X224023932Y-71600957D01*
X224286021Y-71776079D01*
X224577239Y-71896706D01*
X224886394Y-71958200D01*
X225201606Y-71958200D01*
X225510761Y-71896706D01*
X225801979Y-71776079D01*
X226064068Y-71600957D01*
X226286957Y-71378068D01*
X226462079Y-71115979D01*
X226582706Y-70824761D01*
X226644200Y-70515606D01*
X226644200Y-70200394D01*
X226582706Y-69891239D01*
X226462079Y-69600021D01*
X226286957Y-69337932D01*
X226064068Y-69115043D01*
X225801979Y-68939921D01*
X225510761Y-68819294D01*
X225201606Y-68757800D01*
X224886394Y-68757800D01*
X224577239Y-68819294D01*
X224286021Y-68939921D01*
X224023932Y-69115043D01*
X223801043Y-69337932D01*
X223774000Y-69378405D01*
X223746957Y-69337932D01*
X223524068Y-69115043D01*
X223261979Y-68939921D01*
X222970761Y-68819294D01*
X222661606Y-68757800D01*
X222346394Y-68757800D01*
X222037239Y-68819294D01*
X221746021Y-68939921D01*
X221496327Y-69106761D01*
X221459737Y-69038306D01*
X221380385Y-68941615D01*
X221303272Y-68878330D01*
X221619603Y-68561999D01*
X225276679Y-68561999D01*
X225314001Y-68565675D01*
X225351323Y-68561999D01*
X225351334Y-68561999D01*
X225462987Y-68551002D01*
X225606248Y-68507545D01*
X225738277Y-68436973D01*
X225822279Y-68368034D01*
X225837088Y-68374168D01*
X226152967Y-68437000D01*
X226475033Y-68437000D01*
X226790912Y-68374168D01*
X227088463Y-68250918D01*
X227356252Y-68071987D01*
X227583987Y-67844252D01*
X227762918Y-67576463D01*
X227886168Y-67278912D01*
X227949000Y-66963033D01*
X227949000Y-66640967D01*
X227886168Y-66325088D01*
X227762918Y-66027537D01*
X227583987Y-65759748D01*
X227356252Y-65532013D01*
X227088463Y-65353082D01*
X226790912Y-65229832D01*
X226475033Y-65167000D01*
X226152967Y-65167000D01*
X225837088Y-65229832D01*
X225539537Y-65353082D01*
X225271748Y-65532013D01*
X225044013Y-65759748D01*
X224944572Y-65908572D01*
X224944572Y-64809000D01*
X224932312Y-64684518D01*
X224896002Y-64564820D01*
X224837037Y-64454506D01*
X224757685Y-64357815D01*
X224660994Y-64278463D01*
X224550680Y-64219498D01*
X224430982Y-64183188D01*
X224306500Y-64170928D01*
X222606500Y-64170928D01*
X222482018Y-64183188D01*
X222362320Y-64219498D01*
X222252006Y-64278463D01*
X222186500Y-64332222D01*
X222120994Y-64278463D01*
X222010680Y-64219498D01*
X221890982Y-64183188D01*
X221766500Y-64170928D01*
X221202250Y-64174000D01*
X221043500Y-64332750D01*
X221043500Y-65532000D01*
X221063500Y-65532000D01*
X221063500Y-65786000D01*
X221043500Y-65786000D01*
X221043500Y-66985250D01*
X221121619Y-67063369D01*
X221016714Y-67095191D01*
X221012554Y-67096453D01*
X220880524Y-67167025D01*
X220816441Y-67219617D01*
X220764800Y-67261998D01*
X220741002Y-67290996D01*
X219452998Y-68579001D01*
X219424000Y-68602799D01*
X219400202Y-68631797D01*
X219400201Y-68631798D01*
X219329026Y-68718524D01*
X219309674Y-68754728D01*
X218998800Y-68754728D01*
X218874318Y-68766988D01*
X218754620Y-68803298D01*
X218644306Y-68862263D01*
X218547615Y-68941615D01*
X218468263Y-69038306D01*
X218409298Y-69148620D01*
X218372988Y-69268318D01*
X218360728Y-69392800D01*
X218360728Y-71323200D01*
X218372988Y-71447682D01*
X218409298Y-71567380D01*
X218468263Y-71677694D01*
X218537028Y-71761484D01*
X218440000Y-71751928D01*
X217455750Y-71755000D01*
X217297000Y-71913750D01*
X217297000Y-73533000D01*
X218916250Y-73533000D01*
X219075000Y-73374250D01*
X219078072Y-72390000D01*
X219065812Y-72265518D01*
X219029502Y-72145820D01*
X218970537Y-72035506D01*
X218901772Y-71951716D01*
X218998800Y-71961272D01*
X219825927Y-71961272D01*
X219453003Y-72334196D01*
X219423999Y-72357999D01*
X219384850Y-72405703D01*
X219329026Y-72473724D01*
X219302963Y-72522484D01*
X219258454Y-72605754D01*
X219214997Y-72749015D01*
X219204000Y-72860668D01*
X219204000Y-72860678D01*
X219200324Y-72898000D01*
X219204000Y-72935322D01*
X219204001Y-81108170D01*
X219200324Y-81145502D01*
X219204001Y-81182835D01*
X219214998Y-81294488D01*
X219219542Y-81309467D01*
X219258454Y-81437748D01*
X219329026Y-81569778D01*
X219379708Y-81631533D01*
X219424000Y-81685503D01*
X219452998Y-81709301D01*
X220799524Y-83055828D01*
X219431500Y-83055828D01*
X219307018Y-83068088D01*
X219187320Y-83104398D01*
X219077006Y-83163363D01*
X219011500Y-83217122D01*
X218945994Y-83163363D01*
X218835680Y-83104398D01*
X218715982Y-83068088D01*
X218591500Y-83055828D01*
X217580752Y-83055828D01*
X217646912Y-83042668D01*
X217944463Y-82919418D01*
X218212252Y-82740487D01*
X218439987Y-82512752D01*
X218618918Y-82244963D01*
X218742168Y-81947412D01*
X218805000Y-81631533D01*
X218805000Y-81309467D01*
X218742168Y-80993588D01*
X218618918Y-80696037D01*
X218439987Y-80428248D01*
X218212252Y-80200513D01*
X218121796Y-80140072D01*
X218440000Y-80140072D01*
X218564482Y-80127812D01*
X218684180Y-80091502D01*
X218794494Y-80032537D01*
X218891185Y-79953185D01*
X218970537Y-79856494D01*
X219029502Y-79746180D01*
X219065812Y-79626482D01*
X219078072Y-79502000D01*
X219078072Y-76962000D01*
X219065812Y-76837518D01*
X219029502Y-76717820D01*
X218970537Y-76607506D01*
X218891185Y-76510815D01*
X218794494Y-76431463D01*
X218684180Y-76372498D01*
X218564482Y-76336188D01*
X218440000Y-76323928D01*
X216134999Y-76323928D01*
X216134999Y-75567339D01*
X216884250Y-75565000D01*
X217043000Y-75406250D01*
X217043000Y-73787000D01*
X217297000Y-73787000D01*
X217297000Y-75406250D01*
X217455750Y-75565000D01*
X218440000Y-75568072D01*
X218564482Y-75555812D01*
X218684180Y-75519502D01*
X218794494Y-75460537D01*
X218891185Y-75381185D01*
X218970537Y-75284494D01*
X219029502Y-75174180D01*
X219065812Y-75054482D01*
X219078072Y-74930000D01*
X219075000Y-73945750D01*
X218916250Y-73787000D01*
X217297000Y-73787000D01*
X217043000Y-73787000D01*
X217023000Y-73787000D01*
X217023000Y-73533000D01*
X217043000Y-73533000D01*
X217043000Y-71913750D01*
X216884250Y-71755000D01*
X216134999Y-71752661D01*
X216134999Y-70897515D01*
X217681003Y-69351512D01*
X217710001Y-69327714D01*
X217804974Y-69211989D01*
X217875546Y-69079960D01*
X217919003Y-68936699D01*
X217929655Y-68828552D01*
X217944463Y-68822418D01*
X218212252Y-68643487D01*
X218439987Y-68415752D01*
X218618918Y-68147963D01*
X218742168Y-67850412D01*
X218805000Y-67534533D01*
X218805000Y-67212467D01*
X218742168Y-66896588D01*
X218618918Y-66599037D01*
X218558758Y-66509000D01*
X219428428Y-66509000D01*
X219440688Y-66633482D01*
X219476998Y-66753180D01*
X219535963Y-66863494D01*
X219615315Y-66960185D01*
X219712006Y-67039537D01*
X219822320Y-67098502D01*
X219942018Y-67134812D01*
X220066500Y-67147072D01*
X220630750Y-67144000D01*
X220789500Y-66985250D01*
X220789500Y-65786000D01*
X219590250Y-65786000D01*
X219431500Y-65944750D01*
X219428428Y-66509000D01*
X218558758Y-66509000D01*
X218439987Y-66331248D01*
X218212252Y-66103513D01*
X217944463Y-65924582D01*
X217646912Y-65801332D01*
X217569833Y-65786000D01*
X217646912Y-65770668D01*
X217944463Y-65647418D01*
X218212252Y-65468487D01*
X218439987Y-65240752D01*
X218618918Y-64972963D01*
X218686833Y-64809000D01*
X219428428Y-64809000D01*
X219431500Y-65373250D01*
X219590250Y-65532000D01*
X220789500Y-65532000D01*
X220789500Y-64332750D01*
X220630750Y-64174000D01*
X220066500Y-64170928D01*
X219942018Y-64183188D01*
X219822320Y-64219498D01*
X219712006Y-64278463D01*
X219615315Y-64357815D01*
X219535963Y-64454506D01*
X219476998Y-64564820D01*
X219440688Y-64684518D01*
X219428428Y-64809000D01*
X218686833Y-64809000D01*
X218742168Y-64675412D01*
X218805000Y-64359533D01*
X218805000Y-64037467D01*
X218742168Y-63721588D01*
X218618918Y-63424037D01*
X218439987Y-63156248D01*
X218212252Y-62928513D01*
X217944463Y-62749582D01*
X217646912Y-62626332D01*
X217331033Y-62563500D01*
X217008967Y-62563500D01*
X216693088Y-62626332D01*
X216395537Y-62749582D01*
X216127748Y-62928513D01*
X215900013Y-63156248D01*
X215721082Y-63424037D01*
X215597832Y-63721588D01*
X215535000Y-64037467D01*
X215535000Y-64359533D01*
X215597832Y-64675412D01*
X215721082Y-64972963D01*
X215900013Y-65240752D01*
X216127748Y-65468487D01*
X216395537Y-65647418D01*
X216693088Y-65770668D01*
X216770167Y-65786000D01*
X216693088Y-65801332D01*
X216395537Y-65924582D01*
X216127748Y-66103513D01*
X215900013Y-66331248D01*
X215721082Y-66599037D01*
X215597832Y-66896588D01*
X215535000Y-67212467D01*
X215535000Y-67534533D01*
X215597832Y-67850412D01*
X215721082Y-68147963D01*
X215900013Y-68415752D01*
X216127748Y-68643487D01*
X216194693Y-68688218D01*
X214864002Y-70018910D01*
X214834998Y-70042713D01*
X214795050Y-70091390D01*
X214740025Y-70158438D01*
X214701086Y-70231287D01*
X214669453Y-70290468D01*
X214625996Y-70433729D01*
X214614999Y-70545382D01*
X214614999Y-70545392D01*
X214611323Y-70582714D01*
X214614999Y-70620036D01*
X214615000Y-77919667D01*
X214611323Y-77956999D01*
X214615000Y-77994332D01*
X214623735Y-78083013D01*
X214625997Y-78105984D01*
X214669453Y-78249245D01*
X214740025Y-78381275D01*
X214809208Y-78465574D01*
X214834999Y-78497000D01*
X214863997Y-78520798D01*
X215086196Y-78742997D01*
X215109999Y-78772001D01*
X215225724Y-78866974D01*
X215261928Y-78886326D01*
X215261928Y-79502000D01*
X215274188Y-79626482D01*
X215310498Y-79746180D01*
X215369463Y-79856494D01*
X215448815Y-79953185D01*
X215545506Y-80032537D01*
X215655820Y-80091502D01*
X215775518Y-80127812D01*
X215900000Y-80140072D01*
X216218204Y-80140072D01*
X216127748Y-80200513D01*
X215900013Y-80428248D01*
X215721082Y-80696037D01*
X215597832Y-80993588D01*
X215535000Y-81309467D01*
X215535000Y-81345060D01*
X215500428Y-81264105D01*
X215429805Y-81160865D01*
X214144230Y-79628776D01*
X214054822Y-79541299D01*
X213950067Y-79472944D01*
X213833989Y-79426340D01*
X213711050Y-79403277D01*
X213585973Y-79404641D01*
X213463566Y-79430381D01*
X213348533Y-79479506D01*
X213245293Y-79550129D01*
X211713204Y-80835704D01*
X211625727Y-80925112D01*
X211557372Y-81029867D01*
X211510768Y-81145945D01*
X211487705Y-81268884D01*
X211489069Y-81393961D01*
X211514809Y-81516368D01*
X211563934Y-81631401D01*
X211634557Y-81734641D01*
X212920132Y-83266730D01*
X213009540Y-83354207D01*
X213114295Y-83422562D01*
X213230373Y-83469166D01*
X213353312Y-83492229D01*
X213478389Y-83490865D01*
X213600796Y-83465125D01*
X213715829Y-83416000D01*
X213819069Y-83345377D01*
X215351158Y-82059802D01*
X215438635Y-81970394D01*
X215506990Y-81865639D01*
X215553594Y-81749561D01*
X215555964Y-81736927D01*
X215597832Y-81947412D01*
X215721082Y-82244963D01*
X215900013Y-82512752D01*
X216127748Y-82740487D01*
X216395537Y-82919418D01*
X216693088Y-83042668D01*
X216803045Y-83064540D01*
X216767018Y-83068088D01*
X216647320Y-83104398D01*
X216537006Y-83163363D01*
X216440315Y-83242715D01*
X216360963Y-83339406D01*
X216301998Y-83449720D01*
X216265688Y-83569418D01*
X216253428Y-83693900D01*
X216253428Y-85393900D01*
X216265688Y-85518382D01*
X216301998Y-85638080D01*
X216360963Y-85748394D01*
X216440315Y-85845085D01*
X216537006Y-85924437D01*
X216647320Y-85983402D01*
X216767018Y-86019712D01*
X216891500Y-86031972D01*
X218591500Y-86031972D01*
X218715982Y-86019712D01*
X218835680Y-85983402D01*
X218945994Y-85924437D01*
X219011500Y-85870678D01*
X219077006Y-85924437D01*
X219187320Y-85983402D01*
X219307018Y-86019712D01*
X219431500Y-86031972D01*
X221131500Y-86031972D01*
X221255982Y-86019712D01*
X221375680Y-85983402D01*
X221485994Y-85924437D01*
X221582685Y-85845085D01*
X221662037Y-85748394D01*
X221721002Y-85638080D01*
X221757312Y-85518382D01*
X221769572Y-85393900D01*
X221769572Y-83869920D01*
X221799511Y-83879002D01*
X221948497Y-83893676D01*
X221985830Y-83889999D01*
X224968820Y-83889999D01*
X224932332Y-83978088D01*
X224869500Y-84293967D01*
X224869500Y-84616033D01*
X224932332Y-84931912D01*
X225055582Y-85229463D01*
X225234513Y-85497252D01*
X225462248Y-85724987D01*
X225730037Y-85903918D01*
X226027588Y-86027168D01*
X226343467Y-86090000D01*
X226441334Y-86090000D01*
X225104823Y-86125204D01*
X225071401Y-86122770D01*
X225037556Y-86126976D01*
X225037257Y-86126984D01*
X225003886Y-86131161D01*
X224937498Y-86139411D01*
X224937215Y-86139505D01*
X224936917Y-86139542D01*
X224873513Y-86160614D01*
X224809414Y-86181855D01*
X224809150Y-86182005D01*
X224808870Y-86182098D01*
X224750968Y-86215036D01*
X224692072Y-86248472D01*
X224691845Y-86248668D01*
X224691585Y-86248816D01*
X224641190Y-86292446D01*
X224621164Y-86309752D01*
X221730289Y-86270896D01*
X221717457Y-86260250D01*
X221676702Y-86223784D01*
X221665600Y-86217226D01*
X221655678Y-86208994D01*
X221607602Y-86182966D01*
X221560525Y-86155157D01*
X221548357Y-86150891D01*
X221537018Y-86144752D01*
X221484786Y-86128603D01*
X221433191Y-86110513D01*
X221420424Y-86108703D01*
X221408106Y-86104894D01*
X221353735Y-86099246D01*
X221299594Y-86091568D01*
X221253041Y-86094154D01*
X214214789Y-86056562D01*
X213793857Y-85831684D01*
X210766608Y-83481582D01*
X209136954Y-81770732D01*
X208389765Y-80762945D01*
X207034215Y-78599278D01*
X209221360Y-78599278D01*
X209293248Y-78869792D01*
X209568215Y-79034487D01*
X209870029Y-79142374D01*
X210187091Y-79189306D01*
X210507218Y-79173482D01*
X210818106Y-79095507D01*
X210997502Y-79018891D01*
X211114929Y-78764562D01*
X210251165Y-77735169D01*
X209221360Y-78599278D01*
X207034215Y-78599278D01*
X206975285Y-78505217D01*
X206540795Y-77671581D01*
X208635887Y-77671581D01*
X208689725Y-77987544D01*
X208804171Y-78286932D01*
X209058092Y-78404702D01*
X210050585Y-77571901D01*
X210445741Y-77571901D01*
X211309504Y-78601294D01*
X211580360Y-78529814D01*
X211686964Y-78366448D01*
X211817739Y-78073824D01*
X211888913Y-77761308D01*
X211897751Y-77440913D01*
X211843913Y-77124950D01*
X211729467Y-76825562D01*
X211475546Y-76707792D01*
X210445741Y-77571901D01*
X210050585Y-77571901D01*
X210087897Y-77540593D01*
X209224134Y-76511200D01*
X208953278Y-76582680D01*
X208846674Y-76746046D01*
X208715899Y-77038670D01*
X208644725Y-77351186D01*
X208635887Y-77671581D01*
X206540795Y-77671581D01*
X206336412Y-77279443D01*
X206011996Y-76347932D01*
X209418709Y-76347932D01*
X210282473Y-77377325D01*
X211312278Y-76513216D01*
X211240390Y-76242702D01*
X210965423Y-76078007D01*
X210663609Y-75970120D01*
X210346547Y-75923188D01*
X210026420Y-75939012D01*
X209715532Y-76016987D01*
X209536136Y-76093603D01*
X209418709Y-76347932D01*
X206011996Y-76347932D01*
X205892134Y-76003768D01*
X205668580Y-75012656D01*
X205795634Y-75139710D01*
X206107644Y-75348189D01*
X206454332Y-75491791D01*
X206822374Y-75565000D01*
X207197626Y-75565000D01*
X207565668Y-75491791D01*
X207912356Y-75348189D01*
X208224366Y-75139710D01*
X208489710Y-74874366D01*
X208698189Y-74562356D01*
X208841791Y-74215668D01*
X208915000Y-73847626D01*
X208915000Y-73472374D01*
X210185000Y-73472374D01*
X210185000Y-73847626D01*
X210258209Y-74215668D01*
X210401811Y-74562356D01*
X210610290Y-74874366D01*
X210875634Y-75139710D01*
X211187644Y-75348189D01*
X211534332Y-75491791D01*
X211902374Y-75565000D01*
X212277626Y-75565000D01*
X212645668Y-75491791D01*
X212992356Y-75348189D01*
X213304366Y-75139710D01*
X213569710Y-74874366D01*
X213778189Y-74562356D01*
X213921791Y-74215668D01*
X213995000Y-73847626D01*
X213995000Y-73472374D01*
X213921791Y-73104332D01*
X213778189Y-72757644D01*
X213569710Y-72445634D01*
X213304366Y-72180290D01*
X212992356Y-71971811D01*
X212645668Y-71828209D01*
X212277626Y-71755000D01*
X211902374Y-71755000D01*
X211534332Y-71828209D01*
X211187644Y-71971811D01*
X210875634Y-72180290D01*
X210610290Y-72445634D01*
X210401811Y-72757644D01*
X210258209Y-73104332D01*
X210185000Y-73472374D01*
X208915000Y-73472374D01*
X208841791Y-73104332D01*
X208698189Y-72757644D01*
X208489710Y-72445634D01*
X208224366Y-72180290D01*
X207912356Y-71971811D01*
X207565668Y-71828209D01*
X207197626Y-71755000D01*
X206822374Y-71755000D01*
X206454332Y-71828209D01*
X206107644Y-71971811D01*
X205795634Y-72180290D01*
X205530290Y-72445634D01*
X205478761Y-72522752D01*
X205493773Y-72114965D01*
X205547096Y-71875010D01*
X206102307Y-71032294D01*
X206116673Y-71015761D01*
X206139329Y-70976101D01*
X206145876Y-70966164D01*
X206156037Y-70946854D01*
X206166833Y-70927955D01*
X206171683Y-70917119D01*
X206192965Y-70876674D01*
X206199190Y-70855664D01*
X206483606Y-70220228D01*
X206504240Y-70181511D01*
X206520834Y-70126568D01*
X206539044Y-70072106D01*
X206540321Y-70062047D01*
X206543253Y-70052341D01*
X206548814Y-69995181D01*
X206556044Y-69938248D01*
X206552975Y-69894485D01*
X206552950Y-69873644D01*
X206713948Y-69578481D01*
X206739789Y-69576838D01*
X206751358Y-69573763D01*
X206763283Y-69572588D01*
X206816497Y-69556446D01*
X206870193Y-69542171D01*
X206880941Y-69536897D01*
X206892406Y-69533419D01*
X206941450Y-69507204D01*
X206991328Y-69482729D01*
X207000839Y-69475461D01*
X207011407Y-69469812D01*
X207054393Y-69434534D01*
X207098539Y-69400797D01*
X207106452Y-69391810D01*
X207115711Y-69384211D01*
X207150983Y-69341233D01*
X207165363Y-69324900D01*
X207172309Y-69315246D01*
X207201312Y-69279907D01*
X207211634Y-69260596D01*
X207980638Y-68191891D01*
X208003492Y-68165798D01*
X208036737Y-68108136D01*
X208064649Y-68060007D01*
X208101082Y-68147963D01*
X208280013Y-68415752D01*
X208507748Y-68643487D01*
X208775537Y-68822418D01*
X209073088Y-68945668D01*
X209388967Y-69008500D01*
X209711033Y-69008500D01*
X210026912Y-68945668D01*
X210324463Y-68822418D01*
X210592252Y-68643487D01*
X210819987Y-68415752D01*
X210998918Y-68147963D01*
X211122168Y-67850412D01*
X211185000Y-67534533D01*
X211185000Y-67212467D01*
X211122168Y-66896588D01*
X210998918Y-66599037D01*
X210819987Y-66331248D01*
X210592252Y-66103513D01*
X210324463Y-65924582D01*
X210026912Y-65801332D01*
X209949833Y-65786000D01*
X210026912Y-65770668D01*
X210324463Y-65647418D01*
X210592252Y-65468487D01*
X210819987Y-65240752D01*
X210998918Y-64972963D01*
X211122168Y-64675412D01*
X211185000Y-64359533D01*
X211185000Y-64037467D01*
X211122168Y-63721588D01*
X210998918Y-63424037D01*
X210819987Y-63156248D01*
X210592252Y-62928513D01*
X210402164Y-62801500D01*
X212916532Y-62801500D01*
X212917802Y-62803644D01*
X212937366Y-62842616D01*
X212952115Y-62861558D01*
X212964353Y-62882213D01*
X212993471Y-62914670D01*
X213020265Y-62949081D01*
X213038429Y-62964783D01*
X213054459Y-62982652D01*
X213089352Y-63008806D01*
X213122342Y-63037326D01*
X213143219Y-63049183D01*
X213162428Y-63063581D01*
X213201745Y-63082422D01*
X213239672Y-63103962D01*
X213262465Y-63111519D01*
X213284111Y-63121892D01*
X213326350Y-63132701D01*
X213367749Y-63146427D01*
X213391578Y-63149392D01*
X213414832Y-63155343D01*
X213458365Y-63157704D01*
X213501649Y-63163090D01*
X213525600Y-63161349D01*
X213549567Y-63162649D01*
X213592722Y-63156472D01*
X213636227Y-63153310D01*
X213659378Y-63146930D01*
X213683138Y-63143529D01*
X213724267Y-63129048D01*
X213766311Y-63117462D01*
X213787768Y-63106691D01*
X213810413Y-63098718D01*
X213847926Y-63076492D01*
X213886903Y-63056926D01*
X213905849Y-63042174D01*
X213926500Y-63029938D01*
X213958959Y-63000819D01*
X213993367Y-62974026D01*
X214009066Y-62955866D01*
X214026939Y-62939832D01*
X214053102Y-62904928D01*
X214081612Y-62871949D01*
X214110079Y-62821825D01*
X214122402Y-62801500D01*
X215455500Y-62801500D01*
X215480276Y-62799060D01*
X215504101Y-62791833D01*
X215526057Y-62780097D01*
X215545303Y-62764303D01*
X215564402Y-62739841D01*
X216100129Y-61846962D01*
X220268886Y-61727855D01*
X220454191Y-62354914D01*
G37*
X220454191Y-62354914D02*
X220454755Y-62360195D01*
X220473275Y-62419492D01*
X220481336Y-62446771D01*
X220483326Y-62451675D01*
X220494981Y-62488992D01*
X220508636Y-62514041D01*
X220519362Y-62540472D01*
X220540851Y-62573139D01*
X220559564Y-62607467D01*
X220577838Y-62629366D01*
X220593518Y-62653201D01*
X220620971Y-62681052D01*
X220646017Y-62711065D01*
X220668209Y-62728975D01*
X220688241Y-62749297D01*
X220720602Y-62771258D01*
X220751021Y-62795807D01*
X220776287Y-62809046D01*
X220799893Y-62825066D01*
X220835911Y-62840290D01*
X220870539Y-62858435D01*
X220897897Y-62866489D01*
X220924179Y-62877598D01*
X220962478Y-62885502D01*
X220999979Y-62896543D01*
X221028390Y-62899106D01*
X221056328Y-62904872D01*
X221066522Y-62904945D01*
X221186939Y-63117991D01*
X221201254Y-63138360D01*
X221219269Y-63155544D01*
X221240290Y-63168884D01*
X221263509Y-63177867D01*
X221291572Y-63182362D01*
X227855756Y-63489100D01*
X227876965Y-64070068D01*
X227741038Y-65077622D01*
X227732069Y-65122381D01*
X227731990Y-65178037D01*
X227729992Y-65233636D01*
X227731895Y-65245395D01*
X227731878Y-65257313D01*
X227742659Y-65311913D01*
X227751546Y-65366837D01*
X227755707Y-65378001D01*
X227758015Y-65389690D01*
X227779237Y-65441129D01*
X227798672Y-65493273D01*
X227804932Y-65503411D01*
X227809475Y-65514424D01*
X227840332Y-65560747D01*
X227869560Y-65608085D01*
X227877673Y-65616803D01*
X227884281Y-65626723D01*
X227923585Y-65666138D01*
X227961483Y-65706863D01*
X227971143Y-65713832D01*
X227979558Y-65722271D01*
X228025787Y-65753254D01*
X228070911Y-65785809D01*
X228081749Y-65790762D01*
X228091645Y-65797394D01*
X228143016Y-65818758D01*
X228193638Y-65841890D01*
X228205235Y-65844633D01*
X228216233Y-65849207D01*
X228270787Y-65860139D01*
X228324947Y-65872950D01*
X228336854Y-65873378D01*
X228348537Y-65875719D01*
X228404189Y-65875798D01*
X228459792Y-65877796D01*
X228471551Y-65875893D01*
X228483469Y-65875910D01*
X228538066Y-65865130D01*
X228592993Y-65856242D01*
X228635766Y-65840299D01*
X229657299Y-65532000D01*
X232640564Y-65532000D01*
X232858929Y-65564832D01*
X232664013Y-65759748D01*
X232485082Y-66027537D01*
X232361832Y-66325088D01*
X232299000Y-66640967D01*
X232299000Y-66963033D01*
X232361832Y-67278912D01*
X232485082Y-67576463D01*
X232664013Y-67844252D01*
X232891748Y-68071987D01*
X233159537Y-68250918D01*
X233457088Y-68374168D01*
X233772967Y-68437000D01*
X234095033Y-68437000D01*
X234410912Y-68374168D01*
X234708463Y-68250918D01*
X234976252Y-68071987D01*
X235203987Y-67844252D01*
X235382918Y-67576463D01*
X235506168Y-67278912D01*
X235569000Y-66963033D01*
X235569000Y-66640967D01*
X235551764Y-66554313D01*
X236159914Y-66864387D01*
X236362517Y-67037573D01*
X238060649Y-68596513D01*
X238593142Y-69213752D01*
X239381031Y-70408612D01*
X239673982Y-71090146D01*
X239965373Y-71930037D01*
X240122849Y-72960661D01*
X239629237Y-74653044D01*
X239563624Y-74776046D01*
X239392388Y-74987710D01*
X239398072Y-74930000D01*
X239395000Y-73945750D01*
X239236250Y-73787000D01*
X237617000Y-73787000D01*
X237617000Y-75406250D01*
X237775750Y-75565000D01*
X238760000Y-75568072D01*
X238884482Y-75555812D01*
X238964544Y-75531525D01*
X238961727Y-75535806D01*
X238953210Y-75556783D01*
X238942032Y-75576471D01*
X238927884Y-75619160D01*
X238910967Y-75660827D01*
X238906705Y-75683065D01*
X238899584Y-75704553D01*
X238894037Y-75749175D01*
X238885571Y-75793350D01*
X238885730Y-75815989D01*
X238882937Y-75838455D01*
X238886203Y-75883315D01*
X238886519Y-75928278D01*
X238891091Y-75950449D01*
X238892735Y-75973032D01*
X238904687Y-76016382D01*
X238913770Y-76060430D01*
X238922582Y-76081289D01*
X238928599Y-76103112D01*
X238948780Y-76143301D01*
X238966281Y-76184727D01*
X238997888Y-76231320D01*
X239175471Y-76512350D01*
X239143175Y-76684595D01*
X239141008Y-76709397D01*
X239143720Y-76734145D01*
X239151209Y-76757889D01*
X239168320Y-76786695D01*
X240072713Y-77932259D01*
X240218387Y-78162793D01*
X239871067Y-77964356D01*
X239654210Y-78022463D01*
X238996985Y-79160810D01*
X240135332Y-79818035D01*
X240352189Y-79759928D01*
X240694574Y-79173043D01*
X240716197Y-79125320D01*
X240961481Y-79720752D01*
X240741923Y-81301575D01*
X240159398Y-82310538D01*
X238206890Y-85532176D01*
X238201908Y-85541204D01*
X237901575Y-86141869D01*
X237791719Y-86199005D01*
X237675496Y-86185241D01*
X237636800Y-86177416D01*
X237575018Y-86177220D01*
X237513198Y-86176002D01*
X237507573Y-86177006D01*
X237501868Y-86176988D01*
X237441220Y-86188851D01*
X237380365Y-86199714D01*
X237375051Y-86201793D01*
X237369445Y-86202890D01*
X237312257Y-86226366D01*
X237254709Y-86248885D01*
X237249900Y-86251963D01*
X237244619Y-86254131D01*
X237193098Y-86288320D01*
X237141062Y-86321626D01*
X237136950Y-86325579D01*
X237132188Y-86328739D01*
X237088303Y-86372346D01*
X237043789Y-86415139D01*
X237021220Y-86447517D01*
X236997608Y-86476102D01*
X234517146Y-86442763D01*
X234489154Y-86419444D01*
X234442024Y-86378911D01*
X234437290Y-86376239D01*
X234433124Y-86372768D01*
X234378638Y-86343128D01*
X234324521Y-86312578D01*
X234319360Y-86310881D01*
X234314594Y-86308289D01*
X234255367Y-86289847D01*
X234196336Y-86270443D01*
X234190941Y-86269786D01*
X234185762Y-86268173D01*
X234124057Y-86261637D01*
X234062392Y-86254125D01*
X234023298Y-86257067D01*
X231431916Y-86238038D01*
X231392433Y-86234534D01*
X231331132Y-86241169D01*
X231269752Y-86246760D01*
X231264125Y-86248422D01*
X231258284Y-86249054D01*
X231199435Y-86267527D01*
X231140345Y-86284979D01*
X231135149Y-86287708D01*
X231129544Y-86289467D01*
X231075446Y-86319058D01*
X231020880Y-86347711D01*
X231016314Y-86351402D01*
X231011163Y-86354220D01*
X230963829Y-86393835D01*
X230962408Y-86394984D01*
X228360722Y-86360015D01*
X228350703Y-86342404D01*
X228321806Y-86309026D01*
X228295252Y-86273767D01*
X228277747Y-86258134D01*
X228262386Y-86240391D01*
X228227539Y-86213296D01*
X228194610Y-86183889D01*
X228174391Y-86171972D01*
X228155864Y-86157566D01*
X228116395Y-86137788D01*
X228078367Y-86115373D01*
X228056213Y-86107630D01*
X228035229Y-86097114D01*
X227992661Y-86085416D01*
X227950991Y-86070851D01*
X227927750Y-86067578D01*
X227905120Y-86061359D01*
X227861089Y-86058190D01*
X227817376Y-86052034D01*
X227760351Y-86055257D01*
X226699754Y-86083193D01*
X226981412Y-86027168D01*
X227278963Y-85903918D01*
X227546752Y-85724987D01*
X227774487Y-85497252D01*
X227953418Y-85229463D01*
X228076668Y-84931912D01*
X228139500Y-84616033D01*
X228139500Y-84293967D01*
X228076668Y-83978088D01*
X228040180Y-83889999D01*
X230048820Y-83889999D01*
X230012332Y-83978088D01*
X229949500Y-84293967D01*
X229949500Y-84616033D01*
X230012332Y-84931912D01*
X230135582Y-85229463D01*
X230314513Y-85497252D01*
X230542248Y-85724987D01*
X230810037Y-85903918D01*
X231107588Y-86027168D01*
X231423467Y-86090000D01*
X231745533Y-86090000D01*
X232061412Y-86027168D01*
X232358963Y-85903918D01*
X232626752Y-85724987D01*
X232854487Y-85497252D01*
X233033418Y-85229463D01*
X233156668Y-84931912D01*
X233219500Y-84616033D01*
X233219500Y-84293967D01*
X233156668Y-83978088D01*
X233120180Y-83889999D01*
X234126995Y-83889999D01*
X234354698Y-84117702D01*
X234378501Y-84146706D01*
X234451648Y-84206736D01*
X234494225Y-84241679D01*
X234626255Y-84312251D01*
X234769516Y-84355708D01*
X234865757Y-84365187D01*
X235040543Y-84626773D01*
X235263432Y-84849662D01*
X235525521Y-85024784D01*
X235816739Y-85145411D01*
X236125894Y-85206905D01*
X236441106Y-85206905D01*
X236750261Y-85145411D01*
X237041479Y-85024784D01*
X237303568Y-84849662D01*
X237526457Y-84626773D01*
X237701579Y-84364684D01*
X237822206Y-84073466D01*
X237883700Y-83764311D01*
X237883700Y-83449099D01*
X237822206Y-83139944D01*
X237762950Y-82996888D01*
X238020261Y-82945706D01*
X238311479Y-82825079D01*
X238573568Y-82649957D01*
X238796457Y-82427068D01*
X238971579Y-82164979D01*
X239092206Y-81873761D01*
X239153700Y-81564606D01*
X239153700Y-81249394D01*
X239135875Y-81159783D01*
X239218520Y-81162488D01*
X239341933Y-81142113D01*
X239458999Y-81098052D01*
X239565221Y-81032000D01*
X239656516Y-80946493D01*
X239729374Y-80844819D01*
X240066439Y-80254862D01*
X240008332Y-80038005D01*
X238869985Y-79380780D01*
X238859985Y-79398101D01*
X238640015Y-79271101D01*
X238650015Y-79253780D01*
X237511668Y-78596555D01*
X237294811Y-78654662D01*
X236952426Y-79241547D01*
X236900802Y-79355481D01*
X236872399Y-79477298D01*
X236868307Y-79602315D01*
X236888682Y-79725728D01*
X236932743Y-79842794D01*
X236976893Y-79913794D01*
X236795521Y-79988921D01*
X236533432Y-80164043D01*
X236310543Y-80386932D01*
X236135421Y-80649021D01*
X236014794Y-80940239D01*
X235953300Y-81249394D01*
X235953300Y-81564606D01*
X236014794Y-81873761D01*
X236074050Y-82016817D01*
X235816739Y-82067999D01*
X235525521Y-82188626D01*
X235263432Y-82363748D01*
X235040543Y-82586637D01*
X235013583Y-82626985D01*
X235005600Y-82619002D01*
X234981797Y-82589998D01*
X234866072Y-82495025D01*
X234734043Y-82424453D01*
X234590782Y-82380996D01*
X234479129Y-82369999D01*
X234479118Y-82369999D01*
X234441796Y-82366323D01*
X234404474Y-82369999D01*
X223615372Y-82369999D01*
X223698918Y-82244963D01*
X223822168Y-81947412D01*
X223885000Y-81631533D01*
X223885000Y-81309467D01*
X223822168Y-80993588D01*
X223698918Y-80696037D01*
X223519987Y-80428248D01*
X223292252Y-80200513D01*
X223024463Y-80021582D01*
X222966017Y-79997373D01*
X223152356Y-79920189D01*
X223464366Y-79711710D01*
X223729710Y-79446366D01*
X223938189Y-79134356D01*
X224081791Y-78787668D01*
X224155000Y-78419626D01*
X224155000Y-78044374D01*
X225425000Y-78044374D01*
X225425000Y-78419626D01*
X225498209Y-78787668D01*
X225641811Y-79134356D01*
X225850290Y-79446366D01*
X226115634Y-79711710D01*
X226427644Y-79920189D01*
X226774332Y-80063791D01*
X227142374Y-80137000D01*
X227517626Y-80137000D01*
X227885668Y-80063791D01*
X228232356Y-79920189D01*
X228544366Y-79711710D01*
X228809710Y-79446366D01*
X229018189Y-79134356D01*
X229161791Y-78787668D01*
X229235000Y-78419626D01*
X229235000Y-78159728D01*
X237580561Y-78159728D01*
X237638668Y-78376585D01*
X238777015Y-79033810D01*
X239434240Y-77895463D01*
X239376133Y-77678606D01*
X238789248Y-77336221D01*
X238675314Y-77284597D01*
X238553497Y-77256194D01*
X238428480Y-77252102D01*
X238305067Y-77272477D01*
X238188001Y-77316538D01*
X238081779Y-77382590D01*
X237990484Y-77468097D01*
X237917626Y-77569771D01*
X237580561Y-78159728D01*
X229235000Y-78159728D01*
X229235000Y-78044374D01*
X229161791Y-77676332D01*
X229018189Y-77329644D01*
X228809710Y-77017634D01*
X228544366Y-76752290D01*
X228232356Y-76543811D01*
X227885668Y-76400209D01*
X227517626Y-76327000D01*
X227142374Y-76327000D01*
X226774332Y-76400209D01*
X226427644Y-76543811D01*
X226115634Y-76752290D01*
X225850290Y-77017634D01*
X225641811Y-77329644D01*
X225498209Y-77676332D01*
X225425000Y-78044374D01*
X224155000Y-78044374D01*
X224081791Y-77676332D01*
X224022826Y-77533976D01*
X225541801Y-76015001D01*
X228417075Y-76015001D01*
X228454397Y-76018677D01*
X228491719Y-76015001D01*
X228491730Y-76015001D01*
X228603383Y-76004004D01*
X228746644Y-75960547D01*
X228878673Y-75889975D01*
X228994398Y-75795002D01*
X229018201Y-75765998D01*
X230576603Y-74207596D01*
X230578209Y-74215668D01*
X230721811Y-74562356D01*
X230930290Y-74874366D01*
X231195634Y-75139710D01*
X231507644Y-75348189D01*
X231854332Y-75491791D01*
X232222374Y-75565000D01*
X232597626Y-75565000D01*
X232965668Y-75491791D01*
X233312356Y-75348189D01*
X233624366Y-75139710D01*
X233834076Y-74930000D01*
X235581928Y-74930000D01*
X235594188Y-75054482D01*
X235630498Y-75174180D01*
X235689463Y-75284494D01*
X235768815Y-75381185D01*
X235865506Y-75460537D01*
X235975820Y-75519502D01*
X236095518Y-75555812D01*
X236220000Y-75568072D01*
X237204250Y-75565000D01*
X237363000Y-75406250D01*
X237363000Y-73787000D01*
X235743750Y-73787000D01*
X235585000Y-73945750D01*
X235581928Y-74930000D01*
X233834076Y-74930000D01*
X233889710Y-74874366D01*
X234098189Y-74562356D01*
X234241791Y-74215668D01*
X234315000Y-73847626D01*
X234315000Y-73472374D01*
X234241791Y-73104332D01*
X234098189Y-72757644D01*
X233889710Y-72445634D01*
X233624366Y-72180290D01*
X233312356Y-71971811D01*
X232965668Y-71828209D01*
X232957596Y-71826603D01*
X233666200Y-71118000D01*
X234765091Y-71118000D01*
X234771082Y-71132463D01*
X234950013Y-71400252D01*
X235177748Y-71627987D01*
X235445537Y-71806918D01*
X235743088Y-71930168D01*
X235772277Y-71935974D01*
X235768815Y-71938815D01*
X235689463Y-72035506D01*
X235630498Y-72145820D01*
X235594188Y-72265518D01*
X235581928Y-72390000D01*
X235585000Y-73374250D01*
X235743750Y-73533000D01*
X237363000Y-73533000D01*
X237363000Y-71913750D01*
X237617000Y-71913750D01*
X237617000Y-73533000D01*
X239236250Y-73533000D01*
X239395000Y-73374250D01*
X239398072Y-72390000D01*
X239385812Y-72265518D01*
X239349502Y-72145820D01*
X239290537Y-72035506D01*
X239211185Y-71938815D01*
X239114494Y-71859463D01*
X239004180Y-71800498D01*
X238884482Y-71764188D01*
X238760000Y-71751928D01*
X237775750Y-71755000D01*
X237617000Y-71913750D01*
X237363000Y-71913750D01*
X237204250Y-71755000D01*
X237072778Y-71754590D01*
X237262252Y-71627987D01*
X237489987Y-71400252D01*
X237668918Y-71132463D01*
X237792168Y-70834912D01*
X237855000Y-70519033D01*
X237855000Y-70196967D01*
X237792168Y-69881088D01*
X237668918Y-69583537D01*
X237489987Y-69315748D01*
X237262252Y-69088013D01*
X236994463Y-68909082D01*
X236696912Y-68785832D01*
X236381033Y-68723000D01*
X236058967Y-68723000D01*
X235743088Y-68785832D01*
X235445537Y-68909082D01*
X235177748Y-69088013D01*
X234950013Y-69315748D01*
X234771082Y-69583537D01*
X234765091Y-69598000D01*
X233388720Y-69598000D01*
X233351397Y-69594324D01*
X233314074Y-69598000D01*
X233314065Y-69598000D01*
X233202412Y-69608997D01*
X233059151Y-69652454D01*
X232927122Y-69723026D01*
X232811397Y-69817999D01*
X232787599Y-69846997D01*
X229222925Y-73411671D01*
X229161791Y-73104332D01*
X229018189Y-72757644D01*
X228809710Y-72445634D01*
X228544366Y-72180290D01*
X228232356Y-71971811D01*
X228139888Y-71933510D01*
X228438967Y-71993000D01*
X228761033Y-71993000D01*
X229076912Y-71930168D01*
X229374463Y-71806918D01*
X229642252Y-71627987D01*
X229869987Y-71400252D01*
X230048918Y-71132463D01*
X230172168Y-70834912D01*
X230235000Y-70519033D01*
X230235000Y-70196967D01*
X230172168Y-69881088D01*
X230048918Y-69583537D01*
X229869987Y-69315748D01*
X229642252Y-69088013D01*
X229374463Y-68909082D01*
X229076912Y-68785832D01*
X228761033Y-68723000D01*
X228438967Y-68723000D01*
X228123088Y-68785832D01*
X227825537Y-68909082D01*
X227557748Y-69088013D01*
X227330013Y-69315748D01*
X227151082Y-69583537D01*
X227027832Y-69881088D01*
X226965000Y-70196967D01*
X226965000Y-70519033D01*
X227027832Y-70834912D01*
X227151082Y-71132463D01*
X227330013Y-71400252D01*
X227557748Y-71627987D01*
X227825537Y-71806918D01*
X227868872Y-71824868D01*
X227517626Y-71755000D01*
X227142374Y-71755000D01*
X226774332Y-71828209D01*
X226427644Y-71971811D01*
X226115634Y-72180290D01*
X225850290Y-72445634D01*
X225641811Y-72757644D01*
X225498209Y-73104332D01*
X225425000Y-73472374D01*
X225425000Y-73847626D01*
X225498209Y-74215668D01*
X225613912Y-74495001D01*
X225264321Y-74495001D01*
X225226998Y-74491325D01*
X225189675Y-74495001D01*
X225189666Y-74495001D01*
X225078013Y-74505998D01*
X224934752Y-74549455D01*
X224802723Y-74620027D01*
X224686998Y-74715000D01*
X224663200Y-74743998D01*
X222948024Y-76459174D01*
X222805668Y-76400209D01*
X222437626Y-76327000D01*
X222062374Y-76327000D01*
X221694332Y-76400209D01*
X221347644Y-76543811D01*
X221035634Y-76752290D01*
X220770290Y-77017634D01*
X220724000Y-77086912D01*
X220724000Y-73212801D01*
X222039622Y-71897180D01*
X222346394Y-71958200D01*
X222661606Y-71958200D01*
X222970761Y-71896706D01*
X223261979Y-71776079D01*
X223524068Y-71600957D01*
X223746957Y-71378068D01*
X223774000Y-71337595D01*
X223801043Y-71378068D01*
X224023932Y-71600957D01*
X224286021Y-71776079D01*
X224577239Y-71896706D01*
X224886394Y-71958200D01*
X225201606Y-71958200D01*
X225510761Y-71896706D01*
X225801979Y-71776079D01*
X226064068Y-71600957D01*
X226286957Y-71378068D01*
X226462079Y-71115979D01*
X226582706Y-70824761D01*
X226644200Y-70515606D01*
X226644200Y-70200394D01*
X226582706Y-69891239D01*
X226462079Y-69600021D01*
X226286957Y-69337932D01*
X226064068Y-69115043D01*
X225801979Y-68939921D01*
X225510761Y-68819294D01*
X225201606Y-68757800D01*
X224886394Y-68757800D01*
X224577239Y-68819294D01*
X224286021Y-68939921D01*
X224023932Y-69115043D01*
X223801043Y-69337932D01*
X223774000Y-69378405D01*
X223746957Y-69337932D01*
X223524068Y-69115043D01*
X223261979Y-68939921D01*
X222970761Y-68819294D01*
X222661606Y-68757800D01*
X222346394Y-68757800D01*
X222037239Y-68819294D01*
X221746021Y-68939921D01*
X221496327Y-69106761D01*
X221459737Y-69038306D01*
X221380385Y-68941615D01*
X221303272Y-68878330D01*
X221619603Y-68561999D01*
X225276679Y-68561999D01*
X225314001Y-68565675D01*
X225351323Y-68561999D01*
X225351334Y-68561999D01*
X225462987Y-68551002D01*
X225606248Y-68507545D01*
X225738277Y-68436973D01*
X225822279Y-68368034D01*
X225837088Y-68374168D01*
X226152967Y-68437000D01*
X226475033Y-68437000D01*
X226790912Y-68374168D01*
X227088463Y-68250918D01*
X227356252Y-68071987D01*
X227583987Y-67844252D01*
X227762918Y-67576463D01*
X227886168Y-67278912D01*
X227949000Y-66963033D01*
X227949000Y-66640967D01*
X227886168Y-66325088D01*
X227762918Y-66027537D01*
X227583987Y-65759748D01*
X227356252Y-65532013D01*
X227088463Y-65353082D01*
X226790912Y-65229832D01*
X226475033Y-65167000D01*
X226152967Y-65167000D01*
X225837088Y-65229832D01*
X225539537Y-65353082D01*
X225271748Y-65532013D01*
X225044013Y-65759748D01*
X224944572Y-65908572D01*
X224944572Y-64809000D01*
X224932312Y-64684518D01*
X224896002Y-64564820D01*
X224837037Y-64454506D01*
X224757685Y-64357815D01*
X224660994Y-64278463D01*
X224550680Y-64219498D01*
X224430982Y-64183188D01*
X224306500Y-64170928D01*
X222606500Y-64170928D01*
X222482018Y-64183188D01*
X222362320Y-64219498D01*
X222252006Y-64278463D01*
X222186500Y-64332222D01*
X222120994Y-64278463D01*
X222010680Y-64219498D01*
X221890982Y-64183188D01*
X221766500Y-64170928D01*
X221202250Y-64174000D01*
X221043500Y-64332750D01*
X221043500Y-65532000D01*
X221063500Y-65532000D01*
X221063500Y-65786000D01*
X221043500Y-65786000D01*
X221043500Y-66985250D01*
X221121619Y-67063369D01*
X221016714Y-67095191D01*
X221012554Y-67096453D01*
X220880524Y-67167025D01*
X220816441Y-67219617D01*
X220764800Y-67261998D01*
X220741002Y-67290996D01*
X219452998Y-68579001D01*
X219424000Y-68602799D01*
X219400202Y-68631797D01*
X219400201Y-68631798D01*
X219329026Y-68718524D01*
X219309674Y-68754728D01*
X218998800Y-68754728D01*
X218874318Y-68766988D01*
X218754620Y-68803298D01*
X218644306Y-68862263D01*
X218547615Y-68941615D01*
X218468263Y-69038306D01*
X218409298Y-69148620D01*
X218372988Y-69268318D01*
X218360728Y-69392800D01*
X218360728Y-71323200D01*
X218372988Y-71447682D01*
X218409298Y-71567380D01*
X218468263Y-71677694D01*
X218537028Y-71761484D01*
X218440000Y-71751928D01*
X217455750Y-71755000D01*
X217297000Y-71913750D01*
X217297000Y-73533000D01*
X218916250Y-73533000D01*
X219075000Y-73374250D01*
X219078072Y-72390000D01*
X219065812Y-72265518D01*
X219029502Y-72145820D01*
X218970537Y-72035506D01*
X218901772Y-71951716D01*
X218998800Y-71961272D01*
X219825927Y-71961272D01*
X219453003Y-72334196D01*
X219423999Y-72357999D01*
X219384850Y-72405703D01*
X219329026Y-72473724D01*
X219302963Y-72522484D01*
X219258454Y-72605754D01*
X219214997Y-72749015D01*
X219204000Y-72860668D01*
X219204000Y-72860678D01*
X219200324Y-72898000D01*
X219204000Y-72935322D01*
X219204001Y-81108170D01*
X219200324Y-81145502D01*
X219204001Y-81182835D01*
X219214998Y-81294488D01*
X219219542Y-81309467D01*
X219258454Y-81437748D01*
X219329026Y-81569778D01*
X219379708Y-81631533D01*
X219424000Y-81685503D01*
X219452998Y-81709301D01*
X220799524Y-83055828D01*
X219431500Y-83055828D01*
X219307018Y-83068088D01*
X219187320Y-83104398D01*
X219077006Y-83163363D01*
X219011500Y-83217122D01*
X218945994Y-83163363D01*
X218835680Y-83104398D01*
X218715982Y-83068088D01*
X218591500Y-83055828D01*
X217580752Y-83055828D01*
X217646912Y-83042668D01*
X217944463Y-82919418D01*
X218212252Y-82740487D01*
X218439987Y-82512752D01*
X218618918Y-82244963D01*
X218742168Y-81947412D01*
X218805000Y-81631533D01*
X218805000Y-81309467D01*
X218742168Y-80993588D01*
X218618918Y-80696037D01*
X218439987Y-80428248D01*
X218212252Y-80200513D01*
X218121796Y-80140072D01*
X218440000Y-80140072D01*
X218564482Y-80127812D01*
X218684180Y-80091502D01*
X218794494Y-80032537D01*
X218891185Y-79953185D01*
X218970537Y-79856494D01*
X219029502Y-79746180D01*
X219065812Y-79626482D01*
X219078072Y-79502000D01*
X219078072Y-76962000D01*
X219065812Y-76837518D01*
X219029502Y-76717820D01*
X218970537Y-76607506D01*
X218891185Y-76510815D01*
X218794494Y-76431463D01*
X218684180Y-76372498D01*
X218564482Y-76336188D01*
X218440000Y-76323928D01*
X216134999Y-76323928D01*
X216134999Y-75567339D01*
X216884250Y-75565000D01*
X217043000Y-75406250D01*
X217043000Y-73787000D01*
X217297000Y-73787000D01*
X217297000Y-75406250D01*
X217455750Y-75565000D01*
X218440000Y-75568072D01*
X218564482Y-75555812D01*
X218684180Y-75519502D01*
X218794494Y-75460537D01*
X218891185Y-75381185D01*
X218970537Y-75284494D01*
X219029502Y-75174180D01*
X219065812Y-75054482D01*
X219078072Y-74930000D01*
X219075000Y-73945750D01*
X218916250Y-73787000D01*
X217297000Y-73787000D01*
X217043000Y-73787000D01*
X217023000Y-73787000D01*
X217023000Y-73533000D01*
X217043000Y-73533000D01*
X217043000Y-71913750D01*
X216884250Y-71755000D01*
X216134999Y-71752661D01*
X216134999Y-70897515D01*
X217681003Y-69351512D01*
X217710001Y-69327714D01*
X217804974Y-69211989D01*
X217875546Y-69079960D01*
X217919003Y-68936699D01*
X217929655Y-68828552D01*
X217944463Y-68822418D01*
X218212252Y-68643487D01*
X218439987Y-68415752D01*
X218618918Y-68147963D01*
X218742168Y-67850412D01*
X218805000Y-67534533D01*
X218805000Y-67212467D01*
X218742168Y-66896588D01*
X218618918Y-66599037D01*
X218558758Y-66509000D01*
X219428428Y-66509000D01*
X219440688Y-66633482D01*
X219476998Y-66753180D01*
X219535963Y-66863494D01*
X219615315Y-66960185D01*
X219712006Y-67039537D01*
X219822320Y-67098502D01*
X219942018Y-67134812D01*
X220066500Y-67147072D01*
X220630750Y-67144000D01*
X220789500Y-66985250D01*
X220789500Y-65786000D01*
X219590250Y-65786000D01*
X219431500Y-65944750D01*
X219428428Y-66509000D01*
X218558758Y-66509000D01*
X218439987Y-66331248D01*
X218212252Y-66103513D01*
X217944463Y-65924582D01*
X217646912Y-65801332D01*
X217569833Y-65786000D01*
X217646912Y-65770668D01*
X217944463Y-65647418D01*
X218212252Y-65468487D01*
X218439987Y-65240752D01*
X218618918Y-64972963D01*
X218686833Y-64809000D01*
X219428428Y-64809000D01*
X219431500Y-65373250D01*
X219590250Y-65532000D01*
X220789500Y-65532000D01*
X220789500Y-64332750D01*
X220630750Y-64174000D01*
X220066500Y-64170928D01*
X219942018Y-64183188D01*
X219822320Y-64219498D01*
X219712006Y-64278463D01*
X219615315Y-64357815D01*
X219535963Y-64454506D01*
X219476998Y-64564820D01*
X219440688Y-64684518D01*
X219428428Y-64809000D01*
X218686833Y-64809000D01*
X218742168Y-64675412D01*
X218805000Y-64359533D01*
X218805000Y-64037467D01*
X218742168Y-63721588D01*
X218618918Y-63424037D01*
X218439987Y-63156248D01*
X218212252Y-62928513D01*
X217944463Y-62749582D01*
X217646912Y-62626332D01*
X217331033Y-62563500D01*
X217008967Y-62563500D01*
X216693088Y-62626332D01*
X216395537Y-62749582D01*
X216127748Y-62928513D01*
X215900013Y-63156248D01*
X215721082Y-63424037D01*
X215597832Y-63721588D01*
X215535000Y-64037467D01*
X215535000Y-64359533D01*
X215597832Y-64675412D01*
X215721082Y-64972963D01*
X215900013Y-65240752D01*
X216127748Y-65468487D01*
X216395537Y-65647418D01*
X216693088Y-65770668D01*
X216770167Y-65786000D01*
X216693088Y-65801332D01*
X216395537Y-65924582D01*
X216127748Y-66103513D01*
X215900013Y-66331248D01*
X215721082Y-66599037D01*
X215597832Y-66896588D01*
X215535000Y-67212467D01*
X215535000Y-67534533D01*
X215597832Y-67850412D01*
X215721082Y-68147963D01*
X215900013Y-68415752D01*
X216127748Y-68643487D01*
X216194693Y-68688218D01*
X214864002Y-70018910D01*
X214834998Y-70042713D01*
X214795050Y-70091390D01*
X214740025Y-70158438D01*
X214701086Y-70231287D01*
X214669453Y-70290468D01*
X214625996Y-70433729D01*
X214614999Y-70545382D01*
X214614999Y-70545392D01*
X214611323Y-70582714D01*
X214614999Y-70620036D01*
X214615000Y-77919667D01*
X214611323Y-77956999D01*
X214615000Y-77994332D01*
X214623735Y-78083013D01*
X214625997Y-78105984D01*
X214669453Y-78249245D01*
X214740025Y-78381275D01*
X214809208Y-78465574D01*
X214834999Y-78497000D01*
X214863997Y-78520798D01*
X215086196Y-78742997D01*
X215109999Y-78772001D01*
X215225724Y-78866974D01*
X215261928Y-78886326D01*
X215261928Y-79502000D01*
X215274188Y-79626482D01*
X215310498Y-79746180D01*
X215369463Y-79856494D01*
X215448815Y-79953185D01*
X215545506Y-80032537D01*
X215655820Y-80091502D01*
X215775518Y-80127812D01*
X215900000Y-80140072D01*
X216218204Y-80140072D01*
X216127748Y-80200513D01*
X215900013Y-80428248D01*
X215721082Y-80696037D01*
X215597832Y-80993588D01*
X215535000Y-81309467D01*
X215535000Y-81345060D01*
X215500428Y-81264105D01*
X215429805Y-81160865D01*
X214144230Y-79628776D01*
X214054822Y-79541299D01*
X213950067Y-79472944D01*
X213833989Y-79426340D01*
X213711050Y-79403277D01*
X213585973Y-79404641D01*
X213463566Y-79430381D01*
X213348533Y-79479506D01*
X213245293Y-79550129D01*
X211713204Y-80835704D01*
X211625727Y-80925112D01*
X211557372Y-81029867D01*
X211510768Y-81145945D01*
X211487705Y-81268884D01*
X211489069Y-81393961D01*
X211514809Y-81516368D01*
X211563934Y-81631401D01*
X211634557Y-81734641D01*
X212920132Y-83266730D01*
X213009540Y-83354207D01*
X213114295Y-83422562D01*
X213230373Y-83469166D01*
X213353312Y-83492229D01*
X213478389Y-83490865D01*
X213600796Y-83465125D01*
X213715829Y-83416000D01*
X213819069Y-83345377D01*
X215351158Y-82059802D01*
X215438635Y-81970394D01*
X215506990Y-81865639D01*
X215553594Y-81749561D01*
X215555964Y-81736927D01*
X215597832Y-81947412D01*
X215721082Y-82244963D01*
X215900013Y-82512752D01*
X216127748Y-82740487D01*
X216395537Y-82919418D01*
X216693088Y-83042668D01*
X216803045Y-83064540D01*
X216767018Y-83068088D01*
X216647320Y-83104398D01*
X216537006Y-83163363D01*
X216440315Y-83242715D01*
X216360963Y-83339406D01*
X216301998Y-83449720D01*
X216265688Y-83569418D01*
X216253428Y-83693900D01*
X216253428Y-85393900D01*
X216265688Y-85518382D01*
X216301998Y-85638080D01*
X216360963Y-85748394D01*
X216440315Y-85845085D01*
X216537006Y-85924437D01*
X216647320Y-85983402D01*
X216767018Y-86019712D01*
X216891500Y-86031972D01*
X218591500Y-86031972D01*
X218715982Y-86019712D01*
X218835680Y-85983402D01*
X218945994Y-85924437D01*
X219011500Y-85870678D01*
X219077006Y-85924437D01*
X219187320Y-85983402D01*
X219307018Y-86019712D01*
X219431500Y-86031972D01*
X221131500Y-86031972D01*
X221255982Y-86019712D01*
X221375680Y-85983402D01*
X221485994Y-85924437D01*
X221582685Y-85845085D01*
X221662037Y-85748394D01*
X221721002Y-85638080D01*
X221757312Y-85518382D01*
X221769572Y-85393900D01*
X221769572Y-83869920D01*
X221799511Y-83879002D01*
X221948497Y-83893676D01*
X221985830Y-83889999D01*
X224968820Y-83889999D01*
X224932332Y-83978088D01*
X224869500Y-84293967D01*
X224869500Y-84616033D01*
X224932332Y-84931912D01*
X225055582Y-85229463D01*
X225234513Y-85497252D01*
X225462248Y-85724987D01*
X225730037Y-85903918D01*
X226027588Y-86027168D01*
X226343467Y-86090000D01*
X226441334Y-86090000D01*
X225104823Y-86125204D01*
X225071401Y-86122770D01*
X225037556Y-86126976D01*
X225037257Y-86126984D01*
X225003886Y-86131161D01*
X224937498Y-86139411D01*
X224937215Y-86139505D01*
X224936917Y-86139542D01*
X224873513Y-86160614D01*
X224809414Y-86181855D01*
X224809150Y-86182005D01*
X224808870Y-86182098D01*
X224750968Y-86215036D01*
X224692072Y-86248472D01*
X224691845Y-86248668D01*
X224691585Y-86248816D01*
X224641190Y-86292446D01*
X224621164Y-86309752D01*
X221730289Y-86270896D01*
X221717457Y-86260250D01*
X221676702Y-86223784D01*
X221665600Y-86217226D01*
X221655678Y-86208994D01*
X221607602Y-86182966D01*
X221560525Y-86155157D01*
X221548357Y-86150891D01*
X221537018Y-86144752D01*
X221484786Y-86128603D01*
X221433191Y-86110513D01*
X221420424Y-86108703D01*
X221408106Y-86104894D01*
X221353735Y-86099246D01*
X221299594Y-86091568D01*
X221253041Y-86094154D01*
X214214789Y-86056562D01*
X213793857Y-85831684D01*
X210766608Y-83481582D01*
X209136954Y-81770732D01*
X208389765Y-80762945D01*
X207034215Y-78599278D01*
X209221360Y-78599278D01*
X209293248Y-78869792D01*
X209568215Y-79034487D01*
X209870029Y-79142374D01*
X210187091Y-79189306D01*
X210507218Y-79173482D01*
X210818106Y-79095507D01*
X210997502Y-79018891D01*
X211114929Y-78764562D01*
X210251165Y-77735169D01*
X209221360Y-78599278D01*
X207034215Y-78599278D01*
X206975285Y-78505217D01*
X206540795Y-77671581D01*
X208635887Y-77671581D01*
X208689725Y-77987544D01*
X208804171Y-78286932D01*
X209058092Y-78404702D01*
X210050585Y-77571901D01*
X210445741Y-77571901D01*
X211309504Y-78601294D01*
X211580360Y-78529814D01*
X211686964Y-78366448D01*
X211817739Y-78073824D01*
X211888913Y-77761308D01*
X211897751Y-77440913D01*
X211843913Y-77124950D01*
X211729467Y-76825562D01*
X211475546Y-76707792D01*
X210445741Y-77571901D01*
X210050585Y-77571901D01*
X210087897Y-77540593D01*
X209224134Y-76511200D01*
X208953278Y-76582680D01*
X208846674Y-76746046D01*
X208715899Y-77038670D01*
X208644725Y-77351186D01*
X208635887Y-77671581D01*
X206540795Y-77671581D01*
X206336412Y-77279443D01*
X206011996Y-76347932D01*
X209418709Y-76347932D01*
X210282473Y-77377325D01*
X211312278Y-76513216D01*
X211240390Y-76242702D01*
X210965423Y-76078007D01*
X210663609Y-75970120D01*
X210346547Y-75923188D01*
X210026420Y-75939012D01*
X209715532Y-76016987D01*
X209536136Y-76093603D01*
X209418709Y-76347932D01*
X206011996Y-76347932D01*
X205892134Y-76003768D01*
X205668580Y-75012656D01*
X205795634Y-75139710D01*
X206107644Y-75348189D01*
X206454332Y-75491791D01*
X206822374Y-75565000D01*
X207197626Y-75565000D01*
X207565668Y-75491791D01*
X207912356Y-75348189D01*
X208224366Y-75139710D01*
X208489710Y-74874366D01*
X208698189Y-74562356D01*
X208841791Y-74215668D01*
X208915000Y-73847626D01*
X208915000Y-73472374D01*
X210185000Y-73472374D01*
X210185000Y-73847626D01*
X210258209Y-74215668D01*
X210401811Y-74562356D01*
X210610290Y-74874366D01*
X210875634Y-75139710D01*
X211187644Y-75348189D01*
X211534332Y-75491791D01*
X211902374Y-75565000D01*
X212277626Y-75565000D01*
X212645668Y-75491791D01*
X212992356Y-75348189D01*
X213304366Y-75139710D01*
X213569710Y-74874366D01*
X213778189Y-74562356D01*
X213921791Y-74215668D01*
X213995000Y-73847626D01*
X213995000Y-73472374D01*
X213921791Y-73104332D01*
X213778189Y-72757644D01*
X213569710Y-72445634D01*
X213304366Y-72180290D01*
X212992356Y-71971811D01*
X212645668Y-71828209D01*
X212277626Y-71755000D01*
X211902374Y-71755000D01*
X211534332Y-71828209D01*
X211187644Y-71971811D01*
X210875634Y-72180290D01*
X210610290Y-72445634D01*
X210401811Y-72757644D01*
X210258209Y-73104332D01*
X210185000Y-73472374D01*
X208915000Y-73472374D01*
X208841791Y-73104332D01*
X208698189Y-72757644D01*
X208489710Y-72445634D01*
X208224366Y-72180290D01*
X207912356Y-71971811D01*
X207565668Y-71828209D01*
X207197626Y-71755000D01*
X206822374Y-71755000D01*
X206454332Y-71828209D01*
X206107644Y-71971811D01*
X205795634Y-72180290D01*
X205530290Y-72445634D01*
X205478761Y-72522752D01*
X205493773Y-72114965D01*
X205547096Y-71875010D01*
X206102307Y-71032294D01*
X206116673Y-71015761D01*
X206139329Y-70976101D01*
X206145876Y-70966164D01*
X206156037Y-70946854D01*
X206166833Y-70927955D01*
X206171683Y-70917119D01*
X206192965Y-70876674D01*
X206199190Y-70855664D01*
X206483606Y-70220228D01*
X206504240Y-70181511D01*
X206520834Y-70126568D01*
X206539044Y-70072106D01*
X206540321Y-70062047D01*
X206543253Y-70052341D01*
X206548814Y-69995181D01*
X206556044Y-69938248D01*
X206552975Y-69894485D01*
X206552950Y-69873644D01*
X206713948Y-69578481D01*
X206739789Y-69576838D01*
X206751358Y-69573763D01*
X206763283Y-69572588D01*
X206816497Y-69556446D01*
X206870193Y-69542171D01*
X206880941Y-69536897D01*
X206892406Y-69533419D01*
X206941450Y-69507204D01*
X206991328Y-69482729D01*
X207000839Y-69475461D01*
X207011407Y-69469812D01*
X207054393Y-69434534D01*
X207098539Y-69400797D01*
X207106452Y-69391810D01*
X207115711Y-69384211D01*
X207150983Y-69341233D01*
X207165363Y-69324900D01*
X207172309Y-69315246D01*
X207201312Y-69279907D01*
X207211634Y-69260596D01*
X207980638Y-68191891D01*
X208003492Y-68165798D01*
X208036737Y-68108136D01*
X208064649Y-68060007D01*
X208101082Y-68147963D01*
X208280013Y-68415752D01*
X208507748Y-68643487D01*
X208775537Y-68822418D01*
X209073088Y-68945668D01*
X209388967Y-69008500D01*
X209711033Y-69008500D01*
X210026912Y-68945668D01*
X210324463Y-68822418D01*
X210592252Y-68643487D01*
X210819987Y-68415752D01*
X210998918Y-68147963D01*
X211122168Y-67850412D01*
X211185000Y-67534533D01*
X211185000Y-67212467D01*
X211122168Y-66896588D01*
X210998918Y-66599037D01*
X210819987Y-66331248D01*
X210592252Y-66103513D01*
X210324463Y-65924582D01*
X210026912Y-65801332D01*
X209949833Y-65786000D01*
X210026912Y-65770668D01*
X210324463Y-65647418D01*
X210592252Y-65468487D01*
X210819987Y-65240752D01*
X210998918Y-64972963D01*
X211122168Y-64675412D01*
X211185000Y-64359533D01*
X211185000Y-64037467D01*
X211122168Y-63721588D01*
X210998918Y-63424037D01*
X210819987Y-63156248D01*
X210592252Y-62928513D01*
X210402164Y-62801500D01*
X212916532Y-62801500D01*
X212917802Y-62803644D01*
X212937366Y-62842616D01*
X212952115Y-62861558D01*
X212964353Y-62882213D01*
X212993471Y-62914670D01*
X213020265Y-62949081D01*
X213038429Y-62964783D01*
X213054459Y-62982652D01*
X213089352Y-63008806D01*
X213122342Y-63037326D01*
X213143219Y-63049183D01*
X213162428Y-63063581D01*
X213201745Y-63082422D01*
X213239672Y-63103962D01*
X213262465Y-63111519D01*
X213284111Y-63121892D01*
X213326350Y-63132701D01*
X213367749Y-63146427D01*
X213391578Y-63149392D01*
X213414832Y-63155343D01*
X213458365Y-63157704D01*
X213501649Y-63163090D01*
X213525600Y-63161349D01*
X213549567Y-63162649D01*
X213592722Y-63156472D01*
X213636227Y-63153310D01*
X213659378Y-63146930D01*
X213683138Y-63143529D01*
X213724267Y-63129048D01*
X213766311Y-63117462D01*
X213787768Y-63106691D01*
X213810413Y-63098718D01*
X213847926Y-63076492D01*
X213886903Y-63056926D01*
X213905849Y-63042174D01*
X213926500Y-63029938D01*
X213958959Y-63000819D01*
X213993367Y-62974026D01*
X214009066Y-62955866D01*
X214026939Y-62939832D01*
X214053102Y-62904928D01*
X214081612Y-62871949D01*
X214110079Y-62821825D01*
X214122402Y-62801500D01*
X215455500Y-62801500D01*
X215480276Y-62799060D01*
X215504101Y-62791833D01*
X215526057Y-62780097D01*
X215545303Y-62764303D01*
X215564402Y-62739841D01*
X216100129Y-61846962D01*
X220268886Y-61727855D01*
X220454191Y-62354914D01*
M02*
