G04 #@! TF.GenerationSoftware,KiCad,Pcbnew,(5.1.5-0-10_14)*
G04 #@! TF.CreationDate,2020-11-19T19:32:45+01:00*
G04 #@! TF.ProjectId,fuzzy-christmas-2020,66757a7a-792d-4636-9872-6973746d6173,rev?*
G04 #@! TF.SameCoordinates,Original*
G04 #@! TF.FileFunction,Legend,Top*
G04 #@! TF.FilePolarity,Positive*
%FSLAX46Y46*%
G04 Gerber Fmt 4.6, Leading zero omitted, Abs format (unit mm)*
G04 Created by KiCad (PCBNEW (5.1.5-0-10_14)) date 2020-11-19 19:32:45*
%MOMM*%
%LPD*%
G04 APERTURE LIST*
%ADD10C,0.100000*%
%ADD11C,0.125000*%
%ADD12C,0.152400*%
%ADD13C,0.127000*%
%ADD14C,0.120000*%
%ADD15C,0.150000*%
%ADD16C,0.097536*%
%ADD17C,0.081280*%
G04 APERTURE END LIST*
D10*
X217174032Y-97850270D02*
X217079126Y-98063430D01*
X217557650Y-98276483D02*
X216644105Y-97869746D01*
X216779684Y-97565231D01*
X217801692Y-97728355D02*
X217192662Y-97457198D01*
X217366670Y-97534671D02*
X217293224Y-97465483D01*
X217263280Y-97415663D01*
X217246893Y-97335392D01*
X217274009Y-97274489D01*
X218018618Y-97241131D02*
X217948000Y-97282666D01*
X217890940Y-97293749D01*
X217790378Y-97285464D01*
X217529365Y-97169253D01*
X217455919Y-97100065D01*
X217425974Y-97050245D01*
X217409588Y-96969973D01*
X217450262Y-96878619D01*
X217520880Y-96837084D01*
X217577940Y-96826001D01*
X217678502Y-96834287D01*
X217939515Y-96950497D01*
X218012961Y-97019685D01*
X218042906Y-97069505D01*
X218059292Y-97149777D01*
X218018618Y-97241131D01*
X218235545Y-96753907D02*
X217626514Y-96482749D01*
X217713519Y-96521486D02*
X217683574Y-96471666D01*
X217667188Y-96391395D01*
X217707862Y-96300040D01*
X217778480Y-96258506D01*
X217879042Y-96266791D01*
X218357566Y-96479843D01*
X217879042Y-96266791D02*
X217805595Y-96197602D01*
X217789209Y-96117331D01*
X217829883Y-96025977D01*
X217900501Y-95984442D01*
X218001063Y-95992727D01*
X218479587Y-96205780D01*
X218448473Y-94987827D02*
X218532649Y-94915841D01*
X218589709Y-94904758D01*
X218690271Y-94913043D01*
X218820778Y-94971148D01*
X218894224Y-95040337D01*
X218924168Y-95090157D01*
X218940555Y-95170428D01*
X218832092Y-95414040D01*
X217918546Y-95007304D01*
X218013451Y-94794143D01*
X218084069Y-94752608D01*
X218141129Y-94741525D01*
X218241692Y-94749811D01*
X218328696Y-94788547D01*
X218402142Y-94857736D01*
X218432087Y-94907556D01*
X218448473Y-94987827D01*
X218353568Y-95200988D01*
X219181768Y-94511578D02*
X219198155Y-94591849D01*
X219143923Y-94713655D01*
X219073305Y-94755190D01*
X218972743Y-94746905D01*
X218624726Y-94591957D01*
X218551279Y-94522769D01*
X218534893Y-94442498D01*
X218589124Y-94320692D01*
X218659742Y-94279157D01*
X218760304Y-94287442D01*
X218847309Y-94326179D01*
X218798734Y-94669431D01*
X219360849Y-94226431D02*
X218751819Y-93955273D01*
X218925828Y-94032747D02*
X218852381Y-93963559D01*
X218822437Y-93913739D01*
X218806051Y-93833467D01*
X218833166Y-93772564D01*
X219577775Y-93739207D02*
X219507158Y-93780742D01*
X219406595Y-93772456D01*
X218623556Y-93423825D01*
X219686239Y-93495595D02*
X219077208Y-93224437D01*
X218772693Y-93088858D02*
X218802637Y-93138678D01*
X218859697Y-93127595D01*
X218829753Y-93077775D01*
X218772693Y-93088858D01*
X218859697Y-93127595D01*
X219212787Y-92919922D02*
X219821817Y-93191080D01*
X219299791Y-92958659D02*
X219269847Y-92908839D01*
X219253461Y-92828567D01*
X219294134Y-92737213D01*
X219364752Y-92695678D01*
X219465315Y-92703964D01*
X219943838Y-92917016D01*
X219660197Y-91915022D02*
X220323459Y-92064374D01*
X219942669Y-91748883D01*
X220431922Y-91820762D01*
X219877124Y-91427798D01*
X220594617Y-91455343D02*
X219985587Y-91184186D01*
X219681072Y-91048607D02*
X219711016Y-91098427D01*
X219768076Y-91087344D01*
X219738132Y-91037524D01*
X219681072Y-91048607D01*
X219768076Y-91087344D01*
X220080492Y-90971025D02*
X220188955Y-90727413D01*
X219816651Y-90744092D02*
X220599689Y-91092723D01*
X220700252Y-91101008D01*
X220770870Y-91059474D01*
X220797985Y-90998571D01*
X220892891Y-90785410D02*
X219979345Y-90378673D01*
X221014912Y-90511346D02*
X220536388Y-90298294D01*
X220435826Y-90290009D01*
X220365208Y-90331543D01*
X220324534Y-90422898D01*
X220340920Y-90503169D01*
X220370865Y-90552989D01*
X221502996Y-89415092D02*
X221367417Y-89719607D01*
X220453871Y-89312870D01*
X221638574Y-89110577D02*
X221567957Y-89152111D01*
X221510896Y-89163194D01*
X221410334Y-89154909D01*
X221149321Y-89038699D01*
X221075875Y-88969510D01*
X221045931Y-88919690D01*
X221029544Y-88839419D01*
X221070218Y-88748064D01*
X221140836Y-88706530D01*
X221197896Y-88695447D01*
X221298458Y-88703732D01*
X221559471Y-88819942D01*
X221632917Y-88889131D01*
X221662862Y-88938951D01*
X221679248Y-89019222D01*
X221638574Y-89110577D01*
X221219355Y-88413098D02*
X221896174Y-88531998D01*
X221354933Y-88108583D01*
X222137388Y-87873148D02*
X222153774Y-87953419D01*
X222099543Y-88075225D01*
X222028925Y-88116760D01*
X221928362Y-88108474D01*
X221580345Y-87953527D01*
X221506899Y-87884339D01*
X221490512Y-87804067D01*
X221544744Y-87682261D01*
X221615362Y-87640727D01*
X221715924Y-87649012D01*
X221802928Y-87687749D01*
X221754354Y-88031001D01*
D11*
X231757739Y-94072873D02*
X230858945Y-93634502D01*
X231286942Y-93843250D02*
X231512390Y-93381013D01*
X231983187Y-93610636D02*
X231084393Y-93172265D01*
X232227422Y-93109880D02*
X232147048Y-93166044D01*
X232085461Y-93183689D01*
X231981074Y-93180459D01*
X231724276Y-93055210D01*
X231657464Y-92974941D01*
X231633451Y-92915547D01*
X231628226Y-92817632D01*
X231684588Y-92702073D01*
X231764963Y-92645908D01*
X231826550Y-92628263D01*
X231930937Y-92631493D01*
X232187735Y-92756742D01*
X232254547Y-92837012D01*
X232278559Y-92896406D01*
X232283784Y-92994320D01*
X232227422Y-93109880D01*
X232584382Y-92378005D02*
X232504007Y-92434169D01*
X232399621Y-92430939D01*
X231629226Y-92055193D01*
X232734680Y-92069847D02*
X232135484Y-91777599D01*
X231835886Y-91631475D02*
X231859899Y-91690870D01*
X231921486Y-91673225D01*
X231897473Y-91613830D01*
X231835886Y-91631475D01*
X231921486Y-91673225D01*
X233091640Y-91337971D02*
X232192846Y-90899600D01*
X233048840Y-91317097D02*
X233054065Y-91415011D01*
X232978916Y-91569090D01*
X232898541Y-91625255D01*
X232836954Y-91642899D01*
X232732568Y-91639670D01*
X232475769Y-91514421D01*
X232408957Y-91434151D01*
X232384945Y-91374757D01*
X232379720Y-91276842D01*
X232454869Y-91122763D01*
X232535243Y-91066599D01*
X233448599Y-90606096D02*
X232977802Y-90376473D01*
X232873416Y-90373243D01*
X232793041Y-90429408D01*
X232717892Y-90583487D01*
X232723117Y-90681401D01*
X233405799Y-90585221D02*
X233411025Y-90683136D01*
X233317088Y-90875734D01*
X233236713Y-90931899D01*
X233132327Y-90928669D01*
X233046727Y-90886920D01*
X232979915Y-90806650D01*
X232974690Y-90708736D01*
X233068627Y-90516137D01*
X233063402Y-90418223D01*
X232999702Y-90005691D02*
X233692835Y-90105340D01*
X233187575Y-89620493D02*
X233692835Y-90105340D01*
X233869258Y-90286753D01*
X233893271Y-90346148D01*
X233898496Y-90444062D01*
X233875483Y-89622228D02*
X233955857Y-89566063D01*
X234031007Y-89411984D01*
X234025782Y-89314070D01*
X233958969Y-89233800D01*
X233916170Y-89212926D01*
X233811783Y-89209696D01*
X233731409Y-89265860D01*
X233675047Y-89381420D01*
X233594672Y-89437584D01*
X233490285Y-89434354D01*
X233447486Y-89413480D01*
X233380674Y-89333210D01*
X233375449Y-89235296D01*
X233431811Y-89119737D01*
X233512185Y-89063572D01*
X234170855Y-88907998D02*
X234232442Y-88890353D01*
X234256455Y-88949747D01*
X234194868Y-88967392D01*
X234170855Y-88907998D01*
X234256455Y-88949747D01*
X233914057Y-88782749D02*
X233381673Y-88570771D01*
X233357661Y-88511376D01*
X233419248Y-88493731D01*
X233914057Y-88782749D01*
X233357661Y-88511376D01*
X224832651Y-94462155D02*
X224730045Y-94744062D01*
X225222265Y-94923216D02*
X224282573Y-94581196D01*
X224429153Y-94178470D01*
X224991570Y-93607844D02*
X225618031Y-93835857D01*
X224859648Y-93970297D02*
X225351868Y-94149450D01*
X225456020Y-94141751D01*
X225530083Y-94077492D01*
X225574057Y-93956675D01*
X225558626Y-93859843D01*
X225528537Y-93803284D01*
X225108834Y-93285663D02*
X225270072Y-92842665D01*
X225735296Y-93513677D01*
X225896534Y-93070679D01*
X225358020Y-92601030D02*
X225519258Y-92158032D01*
X225984482Y-92829044D01*
X226145720Y-92386046D01*
X225607206Y-91916397D02*
X226306958Y-91943048D01*
X225753786Y-91513672D02*
X226306958Y-91943048D01*
X226501378Y-92105026D01*
X226531467Y-92161585D01*
X226546899Y-92258417D01*
X199351682Y-70982384D02*
X200046341Y-71701724D01*
X199384761Y-71016638D02*
X199413340Y-70922842D01*
X199536655Y-70803758D01*
X199631392Y-70778470D01*
X199695300Y-70782953D01*
X199792287Y-70821690D01*
X199990760Y-71027216D01*
X200026090Y-71125496D01*
X200028340Y-71189521D01*
X199999761Y-71283317D01*
X199876446Y-71402402D01*
X199781709Y-71427690D01*
X200614088Y-70623871D02*
X200585509Y-70717667D01*
X200462194Y-70836751D01*
X200367457Y-70862039D01*
X200270470Y-70823302D01*
X200005838Y-70549268D01*
X199970509Y-70450988D01*
X199999088Y-70357191D01*
X200122404Y-70238107D01*
X200217140Y-70212819D01*
X200314127Y-70251557D01*
X200380285Y-70320065D01*
X200138154Y-70686285D01*
X201232915Y-70092475D02*
X200538257Y-69373135D01*
X201199836Y-70058220D02*
X201171257Y-70152017D01*
X201047942Y-70271101D01*
X200953205Y-70296389D01*
X200889297Y-70291906D01*
X200792311Y-70253168D01*
X200593837Y-70047642D01*
X200558508Y-69949363D01*
X200556258Y-69885338D01*
X200584836Y-69791541D01*
X200708152Y-69672457D01*
X200802888Y-69647169D01*
X201818663Y-69526824D02*
X201454794Y-69150027D01*
X201357808Y-69111290D01*
X201263071Y-69136577D01*
X201139756Y-69255662D01*
X201111177Y-69349458D01*
X201785584Y-69492570D02*
X201757005Y-69586366D01*
X201602861Y-69735222D01*
X201508124Y-69760510D01*
X201411138Y-69721772D01*
X201344980Y-69653263D01*
X201309651Y-69554984D01*
X201338229Y-69461187D01*
X201492374Y-69312332D01*
X201520952Y-69218536D01*
X202219438Y-69139800D02*
X202124701Y-69165088D01*
X202027715Y-69126351D01*
X201432293Y-68509774D01*
X202466069Y-68901632D02*
X202002963Y-68422072D01*
X202069121Y-68490580D02*
X202066871Y-68426555D01*
X202095450Y-68332759D01*
X202187936Y-68243445D01*
X202282673Y-68218157D01*
X202379660Y-68256895D01*
X202743529Y-68633692D01*
X202379660Y-68256895D02*
X202344331Y-68158615D01*
X202372909Y-68064819D01*
X202465396Y-67975506D01*
X202560133Y-67950218D01*
X202657119Y-67988955D01*
X203020988Y-68365752D01*
X203606736Y-67800102D02*
X203242868Y-67423305D01*
X203145881Y-67384567D01*
X203051144Y-67409855D01*
X202927829Y-67528940D01*
X202899250Y-67622736D01*
X203573657Y-67765848D02*
X203545079Y-67859644D01*
X203390934Y-68008499D01*
X203296198Y-68033787D01*
X203199211Y-67995050D01*
X203133053Y-67926541D01*
X203097724Y-67828262D01*
X203126303Y-67734465D01*
X203280447Y-67585610D01*
X203309026Y-67491813D01*
X203915025Y-67502391D02*
X203451919Y-67022831D01*
X203584235Y-67159848D02*
X203548906Y-67061569D01*
X203546656Y-66997543D01*
X203575235Y-66903747D01*
X203636892Y-66844205D01*
X204315800Y-67115367D02*
X203621141Y-66396027D01*
X204112826Y-66781791D02*
X204562431Y-66877199D01*
X204099325Y-66397639D02*
X204117326Y-66909842D01*
X204284298Y-66219012D02*
X204530929Y-65980844D01*
X204145232Y-65889919D02*
X204740653Y-66506496D01*
X204837640Y-66545234D01*
X204932377Y-66519946D01*
X204994034Y-66460404D01*
X205143678Y-66183498D02*
X205207586Y-66187981D01*
X205209836Y-66252006D01*
X205145929Y-66247523D01*
X205143678Y-66183498D01*
X205209836Y-66252006D01*
X205762506Y-65652101D02*
X205733927Y-65745898D01*
X205610611Y-65864982D01*
X205515875Y-65890270D01*
X205451967Y-65885787D01*
X205354980Y-65847049D01*
X205156506Y-65641524D01*
X205121177Y-65543244D01*
X205118927Y-65479219D01*
X205147506Y-65385422D01*
X205270821Y-65266338D01*
X205365558Y-65241050D01*
X206165531Y-65329103D02*
X206070794Y-65354391D01*
X206006886Y-65349908D01*
X205909899Y-65311170D01*
X205711426Y-65105644D01*
X205676097Y-65007365D01*
X205673846Y-64943339D01*
X205702425Y-64849543D01*
X205794912Y-64760230D01*
X205889648Y-64734942D01*
X205953556Y-64739425D01*
X206050543Y-64778163D01*
X206249017Y-64983688D01*
X206284346Y-65081968D01*
X206286596Y-65145993D01*
X206258017Y-65239790D01*
X206165531Y-65329103D01*
X206658792Y-64852766D02*
X206195687Y-64373206D01*
X206261845Y-64441714D02*
X206259595Y-64377689D01*
X206288173Y-64283893D01*
X206380660Y-64194579D01*
X206475396Y-64169292D01*
X206572383Y-64208029D01*
X206936252Y-64584826D01*
X206572383Y-64208029D02*
X206537054Y-64109749D01*
X206565633Y-64015953D01*
X206658119Y-63926640D01*
X206752856Y-63901352D01*
X206849843Y-63940089D01*
X207213712Y-64316886D01*
D12*
X210550000Y-66611500D02*
X210550000Y-68135500D01*
X210804000Y-66357500D02*
X211820000Y-66357500D01*
X210804000Y-68389500D02*
X211820000Y-68389500D01*
X211947000Y-66484500D02*
X214773000Y-66484500D01*
X211947000Y-66484500D02*
X211820000Y-66357500D01*
X211947000Y-68262500D02*
X214773000Y-68262500D01*
X211947000Y-68262500D02*
X211820000Y-68389500D01*
X214773000Y-66484500D02*
X214900000Y-66357500D01*
X215916000Y-66357500D02*
X214900000Y-66357500D01*
X214773000Y-68262500D02*
X214900000Y-68389500D01*
X215916000Y-68389500D02*
X214900000Y-68389500D01*
X216170000Y-66611500D02*
X216170000Y-68135500D01*
X210550000Y-68135500D02*
G75*
G03X210804000Y-68389500I254000J0D01*
G01*
X210550000Y-66611500D02*
G75*
G02X210804000Y-66357500I254000J0D01*
G01*
X215916000Y-66357500D02*
G75*
G02X216170000Y-66611500I0J-254000D01*
G01*
X215916000Y-68389500D02*
G75*
G03X216170000Y-68135500I0J254000D01*
G01*
X214399500Y-79502000D02*
G75*
G03X214399500Y-79502000I-2500000J0D01*
G01*
X211431643Y-81552446D02*
X211918082Y-81144275D01*
X211452885Y-81103576D02*
X211877382Y-81609472D01*
D13*
X218694000Y-75184000D02*
X218694000Y-72136000D01*
X215646000Y-75184000D02*
X218694000Y-75184000D01*
X215646000Y-72136000D02*
X215646000Y-75184000D01*
X213614000Y-75184000D02*
X213614000Y-72136000D01*
X210566000Y-75184000D02*
X213614000Y-75184000D01*
X210566000Y-72136000D02*
X210566000Y-75184000D01*
X208534000Y-75184000D02*
X208534000Y-72136000D01*
X205486000Y-75184000D02*
X208534000Y-75184000D01*
X205486000Y-72136000D02*
X205486000Y-75184000D01*
X215646000Y-72136000D02*
X218694000Y-72136000D01*
X210566000Y-72136000D02*
X213614000Y-72136000D01*
X205486000Y-72136000D02*
X208534000Y-72136000D01*
X228854000Y-79756000D02*
X225806000Y-79756000D01*
X223774000Y-79756000D02*
X220726000Y-79756000D01*
X218694000Y-79756000D02*
X215646000Y-79756000D01*
X228854000Y-79756000D02*
X228854000Y-76708000D01*
X228854000Y-76708000D02*
X225806000Y-76708000D01*
X225806000Y-76708000D02*
X225806000Y-79756000D01*
X223774000Y-79756000D02*
X223774000Y-76708000D01*
X223774000Y-76708000D02*
X220726000Y-76708000D01*
X220726000Y-76708000D02*
X220726000Y-79756000D01*
X218694000Y-79756000D02*
X218694000Y-76708000D01*
X218694000Y-76708000D02*
X215646000Y-76708000D01*
X215646000Y-76708000D02*
X215646000Y-79756000D01*
X239014000Y-75184000D02*
X239014000Y-72136000D01*
X235966000Y-75184000D02*
X239014000Y-75184000D01*
X235966000Y-72136000D02*
X235966000Y-75184000D01*
X233934000Y-75184000D02*
X233934000Y-72136000D01*
X230886000Y-75184000D02*
X233934000Y-75184000D01*
X230886000Y-72136000D02*
X230886000Y-75184000D01*
X228854000Y-75184000D02*
X228854000Y-72136000D01*
X225806000Y-75184000D02*
X228854000Y-75184000D01*
X225806000Y-72136000D02*
X225806000Y-75184000D01*
X235966000Y-72136000D02*
X239014000Y-72136000D01*
X230886000Y-72136000D02*
X233934000Y-72136000D01*
X225806000Y-72136000D02*
X228854000Y-72136000D01*
D12*
X222250000Y-81470500D02*
G75*
G02X220980000Y-82740500I-1270000J0D01*
G01*
X220980000Y-80200500D02*
G75*
G02X222250000Y-81470500I0J-1270000D01*
G01*
X220980000Y-80200500D02*
X219075000Y-80200500D01*
X219075000Y-80200500D02*
X218440000Y-80200500D01*
X217170000Y-81470500D02*
G75*
G02X218440000Y-80200500I1270000J0D01*
G01*
X218440000Y-82740500D02*
G75*
G02X217170000Y-81470500I0J1270000D01*
G01*
X218440000Y-82740500D02*
X220980000Y-82740500D01*
X236829207Y-79105513D02*
X235198207Y-81930487D01*
X235198207Y-81930488D02*
G75*
G03X238982793Y-83350992I2355458J523739D01*
G01*
X239951692Y-81672807D02*
G75*
G03X236829207Y-79105513I-2398327J265539D01*
G01*
X238982643Y-83351252D02*
G75*
G03X239951843Y-81672548I-1429143J1944252D01*
G01*
X220873000Y-72136000D02*
X224135000Y-72136000D01*
X224135001Y-72136001D02*
G75*
G03X223472900Y-68148200I-1631301J1778018D01*
G01*
X221535101Y-68148201D02*
G75*
G03X220873000Y-72136000I969199J-2209782D01*
G01*
X223473200Y-68148200D02*
G75*
G03X221534800Y-68148200I-969200J-2209800D01*
G01*
X210804000Y-63182500D02*
G75*
G03X210550000Y-63436500I0J-254000D01*
G01*
X210804000Y-65214500D02*
G75*
G02X210550000Y-64960500I0J254000D01*
G01*
X216170000Y-64960500D02*
G75*
G02X215916000Y-65214500I-254000J0D01*
G01*
X216170000Y-63436500D02*
G75*
G03X215916000Y-63182500I-254000J0D01*
G01*
X210550000Y-64960500D02*
X210550000Y-63436500D01*
X210804000Y-63182500D02*
X211820000Y-63182500D01*
X211947000Y-63309500D02*
X211820000Y-63182500D01*
X210804000Y-65214500D02*
X211820000Y-65214500D01*
X211947000Y-65087500D02*
X211820000Y-65214500D01*
X214773000Y-63309500D02*
X214900000Y-63182500D01*
X214773000Y-63309500D02*
X211947000Y-63309500D01*
X214773000Y-65087500D02*
X214900000Y-65214500D01*
X214773000Y-65087500D02*
X211947000Y-65087500D01*
X215916000Y-63182500D02*
X214900000Y-63182500D01*
X215916000Y-65214500D02*
X214900000Y-65214500D01*
X216170000Y-64960500D02*
X216170000Y-63436500D01*
X234966000Y-71374000D02*
G75*
G03X235220000Y-71120000I0J254000D01*
G01*
X234966000Y-69342000D02*
G75*
G02X235220000Y-69596000I0J-254000D01*
G01*
X229600000Y-69596000D02*
G75*
G02X229854000Y-69342000I254000J0D01*
G01*
X229600000Y-71120000D02*
G75*
G03X229854000Y-71374000I254000J0D01*
G01*
X235220000Y-69596000D02*
X235220000Y-71120000D01*
X234966000Y-71374000D02*
X233950000Y-71374000D01*
X233823000Y-71247000D02*
X233950000Y-71374000D01*
X234966000Y-69342000D02*
X233950000Y-69342000D01*
X233823000Y-69469000D02*
X233950000Y-69342000D01*
X230997000Y-71247000D02*
X230870000Y-71374000D01*
X230997000Y-71247000D02*
X233823000Y-71247000D01*
X230997000Y-69469000D02*
X230870000Y-69342000D01*
X230997000Y-69469000D02*
X233823000Y-69469000D01*
X229854000Y-71374000D02*
X230870000Y-71374000D01*
X229854000Y-69342000D02*
X230870000Y-69342000D01*
X229600000Y-69596000D02*
X229600000Y-71120000D01*
X232934000Y-67564000D02*
X232934000Y-66040000D01*
X232680000Y-67818000D02*
X231664000Y-67818000D01*
X232680000Y-65786000D02*
X231664000Y-65786000D01*
X231537000Y-67691000D02*
X228711000Y-67691000D01*
X231537000Y-67691000D02*
X231664000Y-67818000D01*
X231537000Y-65913000D02*
X228711000Y-65913000D01*
X231537000Y-65913000D02*
X231664000Y-65786000D01*
X228711000Y-67691000D02*
X228584000Y-67818000D01*
X227568000Y-67818000D02*
X228584000Y-67818000D01*
X228711000Y-65913000D02*
X228584000Y-65786000D01*
X227568000Y-65786000D02*
X228584000Y-65786000D01*
X227314000Y-67564000D02*
X227314000Y-66040000D01*
X232934000Y-66040000D02*
G75*
G03X232680000Y-65786000I-254000J0D01*
G01*
X232934000Y-67564000D02*
G75*
G02X232680000Y-67818000I-254000J0D01*
G01*
X227568000Y-67818000D02*
G75*
G02X227314000Y-67564000I0J254000D01*
G01*
X227568000Y-65786000D02*
G75*
G03X227314000Y-66040000I0J-254000D01*
G01*
D14*
X222126500Y-66989000D02*
X224786500Y-66989000D01*
X222126500Y-66869000D02*
X222126500Y-66989000D01*
X224786500Y-66869000D02*
X224786500Y-66989000D01*
X224786500Y-64329000D02*
X224786500Y-65659000D01*
X223456500Y-64329000D02*
X224786500Y-64329000D01*
X220281500Y-83213900D02*
X221611500Y-83213900D01*
X221611500Y-83213900D02*
X221611500Y-84543900D01*
X221611500Y-85753900D02*
X221611500Y-85873900D01*
X218951500Y-85753900D02*
X218951500Y-85873900D01*
X218951500Y-85873900D02*
X221611500Y-85873900D01*
X216411500Y-85873900D02*
X219071500Y-85873900D01*
X216411500Y-85753900D02*
X216411500Y-85873900D01*
X219071500Y-85753900D02*
X219071500Y-85873900D01*
X219071500Y-83213900D02*
X219071500Y-84543900D01*
X217741500Y-83213900D02*
X219071500Y-83213900D01*
X220916500Y-64329000D02*
X222246500Y-64329000D01*
X222246500Y-64329000D02*
X222246500Y-65659000D01*
X222246500Y-66869000D02*
X222246500Y-66989000D01*
X219586500Y-66869000D02*
X219586500Y-66989000D01*
X219586500Y-66989000D02*
X222246500Y-66989000D01*
D12*
X232346500Y-86487000D02*
X225742500Y-86487000D01*
X225234500Y-85979000D02*
G75*
G03X225742500Y-86487000I508000J0D01*
G01*
X225234500Y-85979000D02*
X225234500Y-82931000D01*
X225742500Y-82423000D02*
G75*
G03X225234500Y-82931000I0J-508000D01*
G01*
X225742500Y-82423000D02*
X232346500Y-82423000D01*
X232854500Y-82931000D02*
G75*
G03X232346500Y-82423000I-508000J0D01*
G01*
X232854500Y-82931000D02*
X232854500Y-85979000D01*
X232346500Y-86487000D02*
G75*
G03X232854500Y-85979000I0J508000D01*
G01*
D15*
X213193333Y-67825880D02*
X212860000Y-67349690D01*
X212621904Y-67825880D02*
X212621904Y-66825880D01*
X213002857Y-66825880D01*
X213098095Y-66873500D01*
X213145714Y-66921119D01*
X213193333Y-67016357D01*
X213193333Y-67159214D01*
X213145714Y-67254452D01*
X213098095Y-67302071D01*
X213002857Y-67349690D01*
X212621904Y-67349690D01*
X214145714Y-67825880D02*
X213574285Y-67825880D01*
X213860000Y-67825880D02*
X213860000Y-66825880D01*
X213764761Y-66968738D01*
X213669523Y-67063976D01*
X213574285Y-67111595D01*
D12*
X211440163Y-79624933D02*
X211359222Y-79617852D01*
X211204422Y-79522748D01*
X211130562Y-79434726D01*
X211063784Y-79265763D01*
X211077947Y-79103882D01*
X211129040Y-78986011D01*
X211268154Y-78794282D01*
X211400187Y-78683493D01*
X211613161Y-78579785D01*
X211738113Y-78549937D01*
X211899995Y-78564099D01*
X212054795Y-78659203D01*
X212128654Y-78747225D01*
X212195432Y-78916188D01*
X212188351Y-78997129D01*
X212534881Y-79231347D02*
X213014967Y-79803491D01*
X212404370Y-79790851D01*
X212515159Y-79922884D01*
X212545008Y-80047836D01*
X212537926Y-80128777D01*
X212486834Y-80246647D01*
X212266778Y-80431296D01*
X212141826Y-80461144D01*
X212060886Y-80454062D01*
X211943015Y-80402970D01*
X211721437Y-80138903D01*
X211691589Y-80013952D01*
X211698670Y-79933011D01*
X210038345Y-70843321D02*
X209636178Y-70843321D01*
X209636178Y-71475297D02*
X209636178Y-70268797D01*
X210210702Y-70268797D01*
X211187392Y-70670964D02*
X211187392Y-71475297D01*
X210670321Y-70670964D02*
X210670321Y-71302940D01*
X210727773Y-71417845D01*
X210842678Y-71475297D01*
X211015035Y-71475297D01*
X211129940Y-71417845D01*
X211187392Y-71360392D01*
X211647011Y-70670964D02*
X212278988Y-70670964D01*
X211647011Y-71475297D01*
X212278988Y-71475297D01*
X212623702Y-70670964D02*
X213255678Y-70670964D01*
X212623702Y-71475297D01*
X213255678Y-71475297D01*
X214347273Y-71475297D02*
X213657845Y-71475297D01*
X214002559Y-71475297D02*
X214002559Y-70268797D01*
X213887654Y-70441154D01*
X213772750Y-70556059D01*
X213657845Y-70613511D01*
D16*
X218660617Y-71850310D02*
X218219382Y-71850310D01*
X218440000Y-71850310D02*
X218440000Y-71078150D01*
X218366460Y-71188459D01*
X218292921Y-71261998D01*
X218219382Y-71298767D01*
D12*
X220440250Y-75605821D02*
X220612607Y-75663273D01*
X220670059Y-75720726D01*
X220727511Y-75835630D01*
X220727511Y-76007988D01*
X220670059Y-76122892D01*
X220612607Y-76180345D01*
X220497702Y-76237797D01*
X220038083Y-76237797D01*
X220038083Y-75031297D01*
X220440250Y-75031297D01*
X220555154Y-75088750D01*
X220612607Y-75146202D01*
X220670059Y-75261107D01*
X220670059Y-75376011D01*
X220612607Y-75490916D01*
X220555154Y-75548369D01*
X220440250Y-75605821D01*
X220038083Y-75605821D01*
X221244583Y-76237797D02*
X221244583Y-75433464D01*
X221244583Y-75031297D02*
X221187130Y-75088750D01*
X221244583Y-75146202D01*
X221302035Y-75088750D01*
X221244583Y-75031297D01*
X221244583Y-75146202D01*
X222336178Y-76237797D02*
X222336178Y-75605821D01*
X222278726Y-75490916D01*
X222163821Y-75433464D01*
X221934011Y-75433464D01*
X221819107Y-75490916D01*
X222336178Y-76180345D02*
X222221273Y-76237797D01*
X221934011Y-76237797D01*
X221819107Y-76180345D01*
X221761654Y-76065440D01*
X221761654Y-75950535D01*
X221819107Y-75835630D01*
X221934011Y-75778178D01*
X222221273Y-75778178D01*
X222336178Y-75720726D01*
X222853250Y-76180345D02*
X222968154Y-76237797D01*
X223197964Y-76237797D01*
X223312869Y-76180345D01*
X223370321Y-76065440D01*
X223370321Y-76007988D01*
X223312869Y-75893083D01*
X223197964Y-75835630D01*
X223025607Y-75835630D01*
X222910702Y-75778178D01*
X222853250Y-75663273D01*
X222853250Y-75605821D01*
X222910702Y-75490916D01*
X223025607Y-75433464D01*
X223197964Y-75433464D01*
X223312869Y-75490916D01*
X224519369Y-76237797D02*
X223829940Y-76237797D01*
X224174654Y-76237797D02*
X224174654Y-75031297D01*
X224059750Y-75203654D01*
X223944845Y-75318559D01*
X223829940Y-75376011D01*
D16*
X215993617Y-76358810D02*
X215552382Y-76358810D01*
X215773000Y-76358810D02*
X215773000Y-75586650D01*
X215699460Y-75696959D01*
X215625921Y-75770498D01*
X215552382Y-75807267D01*
D12*
X229593321Y-75602797D02*
X229995488Y-76809297D01*
X230397654Y-75602797D01*
X230972178Y-76809297D02*
X230857273Y-76751845D01*
X230799821Y-76694392D01*
X230742369Y-76579488D01*
X230742369Y-76234773D01*
X230799821Y-76119869D01*
X230857273Y-76062416D01*
X230972178Y-76004964D01*
X231144535Y-76004964D01*
X231259440Y-76062416D01*
X231316892Y-76119869D01*
X231374345Y-76234773D01*
X231374345Y-76579488D01*
X231316892Y-76694392D01*
X231259440Y-76751845D01*
X231144535Y-76809297D01*
X230972178Y-76809297D01*
X232063773Y-76809297D02*
X231948869Y-76751845D01*
X231891416Y-76636940D01*
X231891416Y-75602797D01*
X233040464Y-76004964D02*
X233040464Y-76809297D01*
X232523392Y-76004964D02*
X232523392Y-76636940D01*
X232580845Y-76751845D01*
X232695750Y-76809297D01*
X232868107Y-76809297D01*
X232983011Y-76751845D01*
X233040464Y-76694392D01*
X233614988Y-76809297D02*
X233614988Y-76004964D01*
X233614988Y-76119869D02*
X233672440Y-76062416D01*
X233787345Y-76004964D01*
X233959702Y-76004964D01*
X234074607Y-76062416D01*
X234132059Y-76177321D01*
X234132059Y-76809297D01*
X234132059Y-76177321D02*
X234189511Y-76062416D01*
X234304416Y-76004964D01*
X234476773Y-76004964D01*
X234591678Y-76062416D01*
X234649130Y-76177321D01*
X234649130Y-76809297D01*
X235683273Y-76751845D02*
X235568369Y-76809297D01*
X235338559Y-76809297D01*
X235223654Y-76751845D01*
X235166202Y-76636940D01*
X235166202Y-76177321D01*
X235223654Y-76062416D01*
X235338559Y-76004964D01*
X235568369Y-76004964D01*
X235683273Y-76062416D01*
X235740726Y-76177321D01*
X235740726Y-76292226D01*
X235166202Y-76407130D01*
X236889773Y-76809297D02*
X236200345Y-76809297D01*
X236545059Y-76809297D02*
X236545059Y-75602797D01*
X236430154Y-75775154D01*
X236315250Y-75890059D01*
X236200345Y-75947511D01*
D16*
X238980617Y-71723310D02*
X238539382Y-71723310D01*
X238760000Y-71723310D02*
X238760000Y-70951150D01*
X238686460Y-71061459D01*
X238612921Y-71134998D01*
X238539382Y-71171767D01*
D17*
X219549133Y-81815214D02*
X219503171Y-81861176D01*
X219365285Y-81907138D01*
X219273361Y-81907138D01*
X219135476Y-81861176D01*
X219043552Y-81769252D01*
X218997590Y-81677328D01*
X218951628Y-81493480D01*
X218951628Y-81355595D01*
X218997590Y-81171747D01*
X219043552Y-81079823D01*
X219135476Y-80987900D01*
X219273361Y-80941938D01*
X219365285Y-80941938D01*
X219503171Y-80987900D01*
X219549133Y-81033861D01*
X220468371Y-81907138D02*
X219916828Y-81907138D01*
X220192600Y-81907138D02*
X220192600Y-80941938D01*
X220100676Y-81079823D01*
X220008752Y-81171747D01*
X219916828Y-81217709D01*
D10*
X235848645Y-80268605D02*
X235759787Y-80327274D01*
X235629689Y-80362133D01*
X235434543Y-80414423D01*
X235345684Y-80473092D01*
X235298065Y-80555570D01*
X235528071Y-80633379D02*
X235439213Y-80692048D01*
X235309115Y-80726907D01*
X235120349Y-80672909D01*
X234831673Y-80506242D01*
X234690526Y-80369764D01*
X234655666Y-80239667D01*
X234662046Y-80133379D01*
X234757284Y-79968421D01*
X234846142Y-79909752D01*
X234976240Y-79874893D01*
X235165007Y-79928892D01*
X235453682Y-80095558D01*
X235594830Y-80232036D01*
X235629689Y-80362133D01*
X235623309Y-80468421D01*
X235528071Y-80633379D01*
X236218548Y-79437439D02*
X235932833Y-79932311D01*
X236075690Y-79684875D02*
X235209665Y-79184875D01*
X235285764Y-79338782D01*
X235320623Y-79468880D01*
X235314244Y-79575168D01*
X222457761Y-73564619D02*
X222362523Y-73517000D01*
X222267285Y-73421761D01*
X222124428Y-73278904D01*
X222029190Y-73231285D01*
X221933952Y-73231285D01*
X221981571Y-73469380D02*
X221886333Y-73421761D01*
X221791095Y-73326523D01*
X221743476Y-73136047D01*
X221743476Y-72802714D01*
X221791095Y-72612238D01*
X221886333Y-72517000D01*
X221981571Y-72469380D01*
X222172047Y-72469380D01*
X222267285Y-72517000D01*
X222362523Y-72612238D01*
X222410142Y-72802714D01*
X222410142Y-73136047D01*
X222362523Y-73326523D01*
X222267285Y-73421761D01*
X222172047Y-73469380D01*
X221981571Y-73469380D01*
X222791095Y-72564619D02*
X222838714Y-72517000D01*
X222933952Y-72469380D01*
X223172047Y-72469380D01*
X223267285Y-72517000D01*
X223314904Y-72564619D01*
X223362523Y-72659857D01*
X223362523Y-72755095D01*
X223314904Y-72897952D01*
X222743476Y-73469380D01*
X223362523Y-73469380D01*
D15*
X213193333Y-64650880D02*
X212860000Y-64174690D01*
X212621904Y-64650880D02*
X212621904Y-63650880D01*
X213002857Y-63650880D01*
X213098095Y-63698500D01*
X213145714Y-63746119D01*
X213193333Y-63841357D01*
X213193333Y-63984214D01*
X213145714Y-64079452D01*
X213098095Y-64127071D01*
X213002857Y-64174690D01*
X212621904Y-64174690D01*
X213574285Y-63746119D02*
X213621904Y-63698500D01*
X213717142Y-63650880D01*
X213955238Y-63650880D01*
X214050476Y-63698500D01*
X214098095Y-63746119D01*
X214145714Y-63841357D01*
X214145714Y-63936595D01*
X214098095Y-64079452D01*
X213526666Y-64650880D01*
X214145714Y-64650880D01*
X232243333Y-70810380D02*
X231910000Y-70334190D01*
X231671904Y-70810380D02*
X231671904Y-69810380D01*
X232052857Y-69810380D01*
X232148095Y-69858000D01*
X232195714Y-69905619D01*
X232243333Y-70000857D01*
X232243333Y-70143714D01*
X232195714Y-70238952D01*
X232148095Y-70286571D01*
X232052857Y-70334190D01*
X231671904Y-70334190D01*
X232576666Y-69810380D02*
X233195714Y-69810380D01*
X232862380Y-70191333D01*
X233005238Y-70191333D01*
X233100476Y-70238952D01*
X233148095Y-70286571D01*
X233195714Y-70381809D01*
X233195714Y-70619904D01*
X233148095Y-70715142D01*
X233100476Y-70762761D01*
X233005238Y-70810380D01*
X232719523Y-70810380D01*
X232624285Y-70762761D01*
X232576666Y-70715142D01*
X229957333Y-67254380D02*
X229624000Y-66778190D01*
X229385904Y-67254380D02*
X229385904Y-66254380D01*
X229766857Y-66254380D01*
X229862095Y-66302000D01*
X229909714Y-66349619D01*
X229957333Y-66444857D01*
X229957333Y-66587714D01*
X229909714Y-66682952D01*
X229862095Y-66730571D01*
X229766857Y-66778190D01*
X229385904Y-66778190D01*
X230814476Y-66587714D02*
X230814476Y-67254380D01*
X230576380Y-66206761D02*
X230338285Y-66921047D01*
X230957333Y-66921047D01*
X223413628Y-64201514D02*
X223413628Y-63439609D01*
X223794580Y-63820561D02*
X223032676Y-63820561D01*
X223794580Y-62915800D02*
X223794580Y-62725323D01*
X223746961Y-62630085D01*
X223699342Y-62582466D01*
X223556485Y-62487228D01*
X223366009Y-62439609D01*
X222985057Y-62439609D01*
X222889819Y-62487228D01*
X222842200Y-62534847D01*
X222794580Y-62630085D01*
X222794580Y-62820561D01*
X222842200Y-62915800D01*
X222889819Y-62963419D01*
X222985057Y-63011038D01*
X223223152Y-63011038D01*
X223318390Y-62963419D01*
X223366009Y-62915800D01*
X223413628Y-62820561D01*
X223413628Y-62630085D01*
X223366009Y-62534847D01*
X223318390Y-62487228D01*
X223223152Y-62439609D01*
X222794580Y-62153895D02*
X223794580Y-61820561D01*
X222794580Y-61487228D01*
X222496166Y-83958180D02*
X222686642Y-83958180D01*
X222781880Y-84005800D01*
X222877119Y-84101038D01*
X222924738Y-84291514D01*
X222924738Y-84624847D01*
X222877119Y-84815323D01*
X222781880Y-84910561D01*
X222686642Y-84958180D01*
X222496166Y-84958180D01*
X222400928Y-84910561D01*
X222305690Y-84815323D01*
X222258071Y-84624847D01*
X222258071Y-84291514D01*
X222305690Y-84101038D01*
X222400928Y-84005800D01*
X222496166Y-83958180D01*
X223781880Y-84291514D02*
X223781880Y-84958180D01*
X223353309Y-84291514D02*
X223353309Y-84815323D01*
X223400928Y-84910561D01*
X223496166Y-84958180D01*
X223639023Y-84958180D01*
X223734261Y-84910561D01*
X223781880Y-84862942D01*
X224115214Y-84291514D02*
X224496166Y-84291514D01*
X224258071Y-83958180D02*
X224258071Y-84815323D01*
X224305690Y-84910561D01*
X224400928Y-84958180D01*
X224496166Y-84958180D01*
X215066619Y-84958180D02*
X215066619Y-83958180D01*
X215542809Y-84291514D02*
X215542809Y-84958180D01*
X215542809Y-84386752D02*
X215590428Y-84339133D01*
X215685666Y-84291514D01*
X215828523Y-84291514D01*
X215923761Y-84339133D01*
X215971380Y-84434371D01*
X215971380Y-84958180D01*
X219832300Y-63626904D02*
X219784680Y-63722142D01*
X219784680Y-63865000D01*
X219832300Y-64007857D01*
X219927538Y-64103095D01*
X220022776Y-64150714D01*
X220213252Y-64198333D01*
X220356109Y-64198333D01*
X220546585Y-64150714D01*
X220641823Y-64103095D01*
X220737061Y-64007857D01*
X220784680Y-63865000D01*
X220784680Y-63769761D01*
X220737061Y-63626904D01*
X220689442Y-63579285D01*
X220356109Y-63579285D01*
X220356109Y-63769761D01*
X220784680Y-63150714D02*
X219784680Y-63150714D01*
X220784680Y-62579285D01*
X219784680Y-62579285D01*
X220784680Y-62103095D02*
X219784680Y-62103095D01*
X219784680Y-61865000D01*
X219832300Y-61722142D01*
X219927538Y-61626904D01*
X220022776Y-61579285D01*
X220213252Y-61531666D01*
X220356109Y-61531666D01*
X220546585Y-61579285D01*
X220641823Y-61626904D01*
X220737061Y-61722142D01*
X220784680Y-61865000D01*
X220784680Y-62103095D01*
X228877833Y-84812142D02*
X228830214Y-84859761D01*
X228687357Y-84907380D01*
X228592119Y-84907380D01*
X228449261Y-84859761D01*
X228354023Y-84764523D01*
X228306404Y-84669285D01*
X228258785Y-84478809D01*
X228258785Y-84335952D01*
X228306404Y-84145476D01*
X228354023Y-84050238D01*
X228449261Y-83955000D01*
X228592119Y-83907380D01*
X228687357Y-83907380D01*
X228830214Y-83955000D01*
X228877833Y-84002619D01*
X229258785Y-84002619D02*
X229306404Y-83955000D01*
X229401642Y-83907380D01*
X229639738Y-83907380D01*
X229734976Y-83955000D01*
X229782595Y-84002619D01*
X229830214Y-84097857D01*
X229830214Y-84193095D01*
X229782595Y-84335952D01*
X229211166Y-84907380D01*
X229830214Y-84907380D01*
M02*
