M48
; DRILL file {KiCad (5.1.5-0-10_14)} date 2020 November 19, Thursday 19:32:50
; FORMAT={-:-/ absolute / inch / decimal}
; #@! TF.CreationDate,2020-11-19T19:32:50+01:00
; #@! TF.GenerationSoftware,Kicad,Pcbnew,(5.1.5-0-10_14)
FMAT,2
INCH
T1C0.0394
T2C0.0551
%
G90
G05
T1
X8.55Y-3.2075
X8.75Y-3.2075
X8.5725Y-3.3285
X8.7975Y-2.585
X8.25Y-2.5275
X8.55Y-2.5275
X8.25Y-2.6525
X8.55Y-2.6525
X9.3025Y-3.2916
X9.3525Y-3.205
X9.4025Y-3.1184
X8.6725Y-3.3285
X8.2782Y-3.0534
X8.4068Y-3.2066
X8.91Y-2.63
X9.21Y-2.63
X9.0Y-2.77
X9.3Y-2.77
X8.6975Y-2.585
X8.9175Y-3.325
X9.1175Y-3.325
X8.66Y-2.77
X8.76Y-2.77
X8.86Y-2.77
T2
X8.95Y-2.9
X9.15Y-2.9
X9.35Y-2.9
X8.55Y-3.08
X8.75Y-3.08
X8.95Y-3.08
X8.15Y-2.9
X8.35Y-2.9
X8.55Y-2.9
T0
M30
